<?xml version="1.0" encoding="utf-8"?>
<!-- Generator: Adobe Illustrator 19.1.0, SVG Export Plug-In . SVG Version: 6.00 Build 0)  -->
<svg version="1.1" id="Layer_1" xmlns="http://www.w3.org/2000/svg" xmlns:xlink="http://www.w3.org/1999/xlink" x="0px" y="0px"
	 viewBox="0 0 1190.6 841.9" style="enable-background:new 0 0 1190.6 841.9;" xml:space="preserve">
<style type="text/css">
	.st0{fill:#FFFFFF;}
	.st1{fill:#FFFFFF;stroke:#FFFFFF;stroke-width:0.6714;stroke-miterlimit:10;}
</style>
<g>
	<g>
		<path class="st0" d="M592.3,361.9v48.4h-1.5h-3.5h-1.5v-18h-15v18h-1.5H566h-1.5v-48.4h1.5h3.5h1.5v24h15v-24h1.5h3.5H592.3z"/>
		<path class="st0" d="M612.2,367.9c-0.8-0.3-1.6-0.6-2.5-0.6c-1.6,0-3.1,0.6-4.2,1.8c-1,1-1.7,2.6-1.7,4.1c0,4.4,4.4,6,7.8,7.5
			c7.2,3.1,12.7,6.3,12.7,15.1c0,4-1.6,7.9-4.5,10.8c-2.8,2.9-6.7,4.5-10.8,4.5c-2.7,0-5.5-0.8-7.8-2.2c-2.3-1.5-4.3-3.5-5.6-5.8
			v-0.1l5.6-3.1l0.1,0.2c0.7,1.4,1.9,2.5,3.1,3.3c1.5,0.8,3,1.2,4.6,1.2c2.4,0,4.7-0.9,6.3-2.6c1.7-1.7,2.7-3.9,2.7-6.3
			c0-5.6-4.5-7.4-8.9-9.3c-6.3-2.8-11.7-5.6-11.7-13.4c0-3.2,1.3-6.4,3.5-8.6c2.3-2.3,5.4-3.6,8.7-3.6c1.9,0,3.6,0.4,5.2,1.2
			c1.7,0.8,3.1,1.9,4.3,3.4l-4.9,3.9C613.7,368.9,613,368.3,612.2,367.9z"/>
	</g>
	<g>
		<path class="st0" d="M678.3,469.4H511.8V302.8h166.5V469.4z M518.1,463.1h154v-154h-154V463.1z"/>
	</g>
	<g>
		<polygon class="st1" points="455.1,521.2 454.5,521.2 454.5,531.4 448.2,531.4 448.2,521.2 447.5,521.2 446.1,521.2 445.5,521.2 
			445.5,541.7 446.1,541.7 447.5,541.7 448.2,541.7 448.2,534.1 454.5,534.1 454.5,541.7 455.1,541.7 456.6,541.7 457.2,541.7 
			457.2,521.2 456.6,521.2 		"/>
		<polygon class="st1" points="466.1,541.7 475.7,541.7 475.7,539 468.7,539 468.7,534.1 474,534.1 474,531.3 468.7,531.3 
			468.7,523.9 475.7,523.9 475.7,521.2 466.1,521.2 		"/>
		<polygon class="st1" points="501.3,536.9 495.3,528.6 489.5,536.9 486.5,521.2 483.8,521.2 487.6,541.7 489.4,541.7 495.3,533.3 
			501.3,541.7 503.1,541.7 506.9,521.2 504.2,521.2 		"/>
		<polygon class="st1" points="517.7,521.2 515,521.2 515,541.7 525.3,541.7 525.3,539.6 525.3,539 517.7,539 		"/>
		<polygon class="st1" points="533.6,541.7 543.3,541.7 543.3,539 536.3,539 536.3,534.1 541.6,534.1 541.6,531.3 536.3,531.3 
			536.3,523.9 543.3,523.9 543.3,521.2 533.6,521.2 		"/>
		<polygon class="st1" points="551.9,523.9 556.8,523.9 556.8,541.7 559.5,541.7 559.5,523.9 564.4,523.9 564.4,521.2 551.9,521.2 
					"/>
		<polygon class="st1" points="572.8,523.9 577.7,523.9 577.7,541.7 580.4,541.7 580.4,523.9 585.3,523.9 585.3,521.2 572.8,521.2 
					"/>
		<path class="st1" d="M613.8,529.2c-1.4-0.6-3.3-1.3-3.3-3.2c0-0.6,0.3-1.3,0.7-1.7c0.5-0.5,1.1-0.7,1.8-0.7c0.4,0,0.7,0.1,1.1,0.2
			c0.3,0.2,0.6,0.4,0.9,0.7l2.1-1.7c-0.5-0.6-1.1-1.1-1.8-1.4c-0.7-0.3-1.4-0.5-2.2-0.5c-1.4,0-2.7,0.5-3.7,1.5
			c-1,1-1.5,2.3-1.5,3.6c0,3.3,2.3,4.5,4.9,5.6c1.8,0.8,3.7,1.6,3.7,3.9c0,1-0.4,1.9-1.1,2.7c-0.7,0.7-1.6,1.1-2.7,1.1
			c-0.7,0-1.3-0.2-1.9-0.5c-0.5-0.3-1-0.8-1.3-1.4l0-0.1l-2.4,1.3v0c0.6,1,1.4,1.8,2.4,2.4c1,0.6,2.1,0.9,3.3,0.9
			c1.7,0,3.4-0.7,4.6-1.9c1.2-1.2,1.9-2.9,1.9-4.6C619.2,531.8,616.9,530.5,613.8,529.2z"/>
		<polygon class="st1" points="625.3,523.9 630.2,523.9 630.2,541.7 632.9,541.7 632.9,523.9 637.8,523.9 637.8,521.2 625.3,521.2 
					"/>
		<path class="st1" d="M658.8,534.4c0,1.3-0.5,2.6-1.5,3.5c-0.9,0.9-2.2,1.4-3.5,1.4c-1.3,0-2.6-0.5-3.5-1.4c-1-1-1.5-2.2-1.5-3.5
			v-13.1h-2.7v13.1c0,2,0.8,4,2.2,5.4c1.4,1.4,3.4,2.2,5.4,2.2c2,0,4-0.8,5.4-2.2c1.5-1.5,2.2-3.4,2.2-5.4v-13.1h-2.7V534.4z"/>
		<path class="st1" d="M676.1,521.2h-6v20.4h6c2.7,0,5.3-1.1,7.2-3c1.9-1.9,3-4.5,3-7.2c0-2.7-1.1-5.3-3-7.2
			C681.4,522.3,678.8,521.2,676.1,521.2z M681.4,536.8c-1.4,1.4-3.3,2.2-5.3,2.2h-3.3v-15.1h3.3c2,0,3.9,0.8,5.3,2.2
			c1.4,1.4,2.2,3.3,2.2,5.3C683.6,533.4,682.8,535.3,681.4,536.8z"/>
		<polygon class="st1" points="694.1,521.2 694.1,541.7 696.8,541.7 696.8,521.2 696.2,521.2 		"/>
		<path class="st1" d="M716,520.9c-2.8,0-5.5,1.1-7.5,3.1c-2,2-3.1,4.7-3.1,7.5c0,2.8,1.1,5.5,3.1,7.5c2,2,4.7,3.1,7.5,3.1
			c2.8,0,5.5-1.1,7.5-3.1c2-2,3.1-4.7,3.1-7.5c0-2.8-1.1-5.5-3.1-7.5C721.5,522,718.8,520.9,716,520.9z M721.6,537
			c-1.5,1.5-3.5,2.3-5.6,2.3c-2.1,0-4.1-0.8-5.6-2.3c-1.5-1.5-2.3-3.5-2.3-5.6c0-2.1,0.8-4.1,2.3-5.6c1.5-1.5,3.5-2.3,5.6-2.3
			c2.1,0,4.1,0.8,5.6,2.3c1.5,1.5,2.3,3.5,2.3,5.6C723.9,533.5,723.1,535.5,721.6,537z"/>
		<path class="st1" d="M740.1,529.2c-1.4-0.6-3.3-1.3-3.3-3.2c0-0.6,0.3-1.3,0.7-1.7c0.5-0.5,1.1-0.7,1.8-0.7c0.4,0,0.7,0.1,1.1,0.2
			c0.3,0.2,0.6,0.4,0.9,0.7l2.1-1.7c-0.5-0.6-1.1-1.1-1.8-1.4c-0.7-0.3-1.4-0.5-2.2-0.5c-1.4,0-2.7,0.5-3.7,1.5
			c-1,1-1.5,2.3-1.5,3.6c0,3.3,2.3,4.5,4.9,5.6c1.8,0.8,3.7,1.6,3.7,3.9c0,1-0.4,1.9-1.1,2.7c-0.7,0.7-1.6,1.1-2.7,1.1
			c-0.7,0-1.3-0.2-1.9-0.5c-0.5-0.3-1-0.8-1.3-1.4l0-0.1l-2.4,1.3v0c0.6,1,1.4,1.8,2.4,2.4c1,0.6,2.1,0.9,3.3,0.9
			c1.7,0,3.4-0.7,4.6-1.9c1.2-1.2,1.9-2.9,1.9-4.6C745.5,531.8,743.1,530.5,740.1,529.2z"/>
	</g>
</g>
</svg>
