<?xml version="1.0" encoding="utf-8"?>
<!-- Generator: Adobe Illustrator 19.1.0, SVG Export Plug-In . SVG Version: 6.00 Build 0)  -->
<svg version="1.1" id="Layer_1" xmlns="http://www.w3.org/2000/svg" xmlns:xlink="http://www.w3.org/1999/xlink" x="0px" y="0px"
	 viewBox="0 0 1190.6 841.9" style="enable-background:new 0 0 1190.6 841.9;" xml:space="preserve">
<style type="text/css">
	.st0{fill:#FFFFFF;}
</style>
<g>
	<g>
		<g>
			<path class="st0" d="M560.8,349.4h19.2v25.4h-4.1v-21.4h-11.1v68.9h11.1v-21.2h4.1v25.3h-19.2V349.4z M605.9,397.6h-33.6v22.1
				h-4.1v-26.2h41.5v28.8h4.1v-32.5h-45.6v-3.9h49.5v40.4h-11.9V397.6z M568.4,356.7h4v21.6h33.6v-28.8h3.9v32.7h-41.4V356.7z
				 M621.5,353.5h-3.7v29h-4v-33h11.6v77.1h-3.9V353.5z"/>
			<path class="st0" d="M625.7,426.9h-4.6v-73h-3v29h-4.7v-33.7h12.3V426.9z M621.9,426.1h3.1v-76.4h-10.8v32.3h3.2v-29h4.5V426.1z
				 M618.1,426.9h-12.6V398h-32.9v22.1h-4.8v-26.9h42.2v28.8h3.4v-31.8h-45.6v-4.6h50.3V426.9z M606.3,426.1h11.2v-39.7h-48.8v3.1
				h45.6v33.2h-4.8v-28.8h-40.8v25.5h3.4v-22.1h34.3V426.1z M580.3,426.9h-19.9v-77.8h19.9v26.1h-4.8v-21.4h-10.4v68.2h10.4v-21.2
				h4.8V426.9z M561.1,426.1h18.4v-24.6h-3.4v21.2h-11.8v-69.6h11.8v21.4h3.4v-24.7h-18.4V426.1z M610.1,382.5H568v-26.1h4.7v21.6
				h32.9v-28.8h4.6V382.5z M568.7,381.8h40.7v-32h-3.1v28.8H572V357h-3.2V381.8z"/>
		</g>
	</g>
	<g>
		<path class="st0" d="M681.6,476.5h-177v-177h177V476.5z M511.3,469.8h163.6V306.2H511.3V469.8z"/>
	</g>
</g>
<g>
	<path class="st0" d="M453.8,532.9h-6.9v9.3h-3.8v-19.6h3.8v7.1h6.9v-7.1h3.8v19.6h-3.8V532.9z"/>
	<path class="st0" d="M477.8,539v3.2h-11.6v-19.6h11.3v3.2H470v3.9h6.1v3.2H470v6.1H477.8z"/>
	<path class="st0" d="M510.9,522.6l-8.1,19.8H502l-4.7-12l-4.7,12h-0.7l-7.9-19.8h4.1l4.3,11l4.7-11.2h0.7l4.8,11.3l4.5-11.1H510.9z
		"/>
	<path class="st0" d="M528.4,542.2h-11.2v-19.6h3.8V539h7.4V542.2z"/>
	<path class="st0" d="M547.4,539v3.2h-11.6v-19.6h11.3v3.2h-7.5v3.9h6.1v3.2h-6.1v6.1H547.4z"/>
	<path class="st0" d="M567.8,525.8h-4.9v16.4h-3.8v-16.4h-4.9v-3.2h13.6V525.8z"/>
	<path class="st0" d="M587.8,525.8h-4.9v16.4h-3.8v-16.4h-4.9v-3.2h13.6V525.8z"/>
	<path class="st0" d="M616.2,526.6c-1.2-0.6-2.5-1-3.9-1c-1.7,0-2.7,0.9-2.7,2c0,1.3,1.3,2,3.2,3c4.4,2.3,5.4,4.3,5.3,6.7
		c-0.1,3.5-2.9,5.4-6.6,5.3c-2.9,0-5.2-0.9-6.3-1.8l1.5-3c1,0.6,2.7,1.4,4.5,1.4c2.1,0,3.1-0.9,3.1-2c0-1.6-1.8-2.4-3.9-3.6
		c-3-1.8-4.7-3.4-4.7-6.2c0-2.3,2-5.2,6.2-5.2c2.3,0,4.3,0.7,5.3,1.2L616.2,526.6z"/>
	<path class="st0" d="M637.7,525.8h-4.9v16.4H629v-16.4h-4.9v-3.2h13.6V525.8z"/>
	<path class="st0" d="M644.6,522.6h3.8v12.6c0,2.4,1.7,4.1,3.8,4.1c2.1,0,3.8-1.8,3.8-4.1v-12.6h3.8v12.7c0,3.9-2.6,7.3-7.6,7.3
		c-5,0-7.5-3.4-7.5-7.3V522.6z"/>
	<path class="st0" d="M668.1,522.7c13.1-2.1,16.4,4.9,16.4,9.7c0,4.7-3.4,11.5-16.4,9.8V522.7z M671.9,538.9
		c3.9,0.4,8.6-1.3,8.6-6.5c0-4.3-3.3-7.1-8.6-6.5V538.9z"/>
	<path class="st0" d="M692.1,522.6h3.8v19.6h-3.8V522.6z"/>
	<path class="st0" d="M713.6,522.2c6.1,0,10.4,4.6,10.4,10.2c0,5.6-4.3,10.2-10.4,10.2c-6.2,0-10.4-4.6-10.4-10.2
		C703.2,526.8,707.5,522.2,713.6,522.2z M713.6,539.2c3.3,0,6.4-2.6,6.4-6.8c0-4.2-3-6.8-6.4-6.8c-3.4,0-6.3,2.7-6.3,6.8
		C707.3,536.6,710.3,539.2,713.6,539.2z"/>
	<path class="st0" d="M741.2,526.6c-1.2-0.6-2.5-1-3.9-1c-1.7,0-2.7,0.9-2.7,2c0,1.3,1.3,2,3.2,3c4.4,2.3,5.4,4.3,5.3,6.7
		c-0.1,3.5-2.9,5.4-6.6,5.3c-2.9,0-5.2-0.9-6.3-1.8l1.5-3c1,0.6,2.7,1.4,4.5,1.4c2.1,0,3.1-0.9,3.1-2c0-1.6-1.8-2.4-3.9-3.6
		c-3-1.8-4.7-3.4-4.7-6.2c0-2.3,2-5.2,6.2-5.2c2.3,0,4.3,0.7,5.3,1.2L741.2,526.6z"/>
</g>
</svg>
