<?xml version="1.0" encoding="utf-8"?>
<!-- Generator: Adobe Illustrator 19.1.0, SVG Export Plug-In . SVG Version: 6.00 Build 0)  -->
<svg version="1.1" id="Layer_1" xmlns="http://www.w3.org/2000/svg" xmlns:xlink="http://www.w3.org/1999/xlink" x="0px" y="0px"
	 viewBox="0 0 1190.6 841.9" style="enable-background:new 0 0 1190.6 841.9;" xml:space="preserve">
<style type="text/css">
	.st0{stroke:#000000;stroke-width:0.6714;stroke-miterlimit:10;}
</style>
<g>
	<g>
		<path d="M592.3,361.9v48.4h-1.5h-3.5h-1.5v-18h-15v18h-1.5H566h-1.5v-48.4h1.5h3.5h1.5v24h15v-24h1.5h3.5H592.3z"/>
		<path d="M612.2,367.9c-0.8-0.3-1.6-0.6-2.5-0.6c-1.6,0-3.1,0.6-4.2,1.8c-1,1-1.7,2.6-1.7,4.1c0,4.4,4.4,6,7.8,7.5
			c7.2,3.1,12.7,6.3,12.7,15.1c0,4-1.6,7.9-4.5,10.8c-2.8,2.9-6.7,4.5-10.8,4.5c-2.7,0-5.5-0.8-7.8-2.2c-2.3-1.5-4.3-3.5-5.6-5.8
			v-0.1l5.6-3.1l0.1,0.2c0.7,1.4,1.9,2.5,3.1,3.3c1.5,0.8,3,1.2,4.6,1.2c2.4,0,4.7-0.9,6.3-2.6c1.7-1.7,2.7-3.9,2.7-6.3
			c0-5.6-4.5-7.4-8.9-9.3c-6.3-2.8-11.7-5.6-11.7-13.4c0-3.2,1.3-6.4,3.5-8.6c2.3-2.3,5.4-3.6,8.7-3.6c1.9,0,3.6,0.4,5.2,1.2
			c1.7,0.8,3.1,1.9,4.3,3.4l-4.9,3.9C613.7,368.9,613,368.3,612.2,367.9z"/>
	</g>
	<g>
		<path d="M678.3,469.4H511.8V302.8h166.5V469.4z M518.1,463.1h154v-154h-154V463.1z"/>
	</g>
	<g>
		<path class="st0" d="M457.2,521.2v20.4h-0.6h-1.5h-0.6v-7.6h-6.3v7.6h-0.6h-1.5h-0.6v-20.4h0.6h1.5h0.6v10.1h6.3v-10.1h0.6h1.5
			H457.2z"/>
		<path class="st0" d="M468.7,531.3h5.3v2.7h-5.3v4.9h7v2.7h-9.7v-20.4h9.7v2.7h-7V531.3z"/>
		<path class="st0" d="M495.3,528.6l5.9,8.3l2.9-15.7h2.7l-3.8,20.4h-1.8l-6-8.4l-6,8.4h-1.8l-3.8-20.4h2.7l2.9,15.7L495.3,528.6z"
			/>
		<path class="st0" d="M525.3,541.7H515v-20.4h2.7V539h7.6v0.6V541.7z"/>
		<path class="st0" d="M536.3,531.3h5.3v2.7h-5.3v4.9h7v2.7h-9.7v-20.4h9.7v2.7h-7V531.3z"/>
		<path class="st0" d="M559.5,541.7h-2.7v-17.8h-4.9v-2.7h12.5v2.7h-4.9V541.7z"/>
		<path class="st0" d="M580.4,541.7h-2.7v-17.8h-4.9v-2.7h12.5v2.7h-4.9V541.7z"/>
		<path class="st0" d="M614.1,523.8c-0.3-0.1-0.7-0.2-1.1-0.2c-0.7,0-1.3,0.3-1.8,0.7c-0.4,0.4-0.7,1.1-0.7,1.7
			c0,1.9,1.9,2.6,3.3,3.2c3,1.3,5.4,2.7,5.4,6.4c0,1.7-0.7,3.3-1.9,4.6c-1.2,1.2-2.8,1.9-4.6,1.9c-1.2,0-2.3-0.3-3.3-0.9
			c-1-0.6-1.8-1.5-2.4-2.4v0l2.4-1.3l0,0.1c0.3,0.6,0.8,1.1,1.3,1.4c0.6,0.3,1.3,0.5,1.9,0.5c1,0,2-0.4,2.7-1.1
			c0.7-0.7,1.1-1.7,1.1-2.7c0-2.3-1.9-3.1-3.7-3.9c-2.7-1.2-4.9-2.3-4.9-5.6c0-1.4,0.5-2.7,1.5-3.6c1-1,2.3-1.5,3.7-1.5
			c0.8,0,1.5,0.2,2.2,0.5c0.7,0.3,1.3,0.8,1.8,1.4l-2.1,1.7C614.7,524.2,614.4,524,614.1,523.8z"/>
		<path class="st0" d="M632.9,541.7h-2.7v-17.8h-4.9v-2.7h12.5v2.7h-4.9V541.7z"/>
		<path class="st0" d="M648.9,534.4c0,1.3,0.5,2.6,1.5,3.5c0.9,0.9,2.2,1.4,3.5,1.4c1.3,0,2.6-0.5,3.5-1.4c1-1,1.5-2.2,1.5-3.5
			v-13.1h2.7v13.1c0,2-0.8,4-2.2,5.4c-1.4,1.4-3.4,2.2-5.4,2.2c-2,0-4-0.8-5.4-2.2c-1.4-1.5-2.2-3.4-2.2-5.4v-13.1h2.7V534.4z"/>
		<path class="st0" d="M676.1,521.2c2.7,0,5.3,1.1,7.2,3c1.9,1.9,3,4.5,3,7.2s-1.1,5.3-3,7.2c-1.9,1.9-4.5,3-7.2,3h-6v-20.4H676.1z
			 M672.8,539h3.3c2,0,3.9-0.8,5.3-2.2c1.4-1.4,2.2-3.3,2.2-5.3c0-2-0.8-3.9-2.2-5.3c-1.4-1.4-3.3-2.2-5.3-2.2h-3.3V539z"/>
		<path class="st0" d="M696.8,521.2v20.4h-2.7v-20.4h2.1H696.8z"/>
		<path class="st0" d="M716,520.9c2.8,0,5.5,1.1,7.5,3.1c2,2,3.1,4.7,3.1,7.5c0,2.8-1.1,5.5-3.1,7.5c-2,2-4.7,3.1-7.5,3.1
			c-2.8,0-5.5-1.1-7.5-3.1c-2-2-3.1-4.7-3.1-7.5c0-2.8,1.1-5.5,3.1-7.5C710.5,522,713.2,520.9,716,520.9z M710.4,525.9
			c-1.5,1.5-2.3,3.5-2.3,5.6c0,2.1,0.8,4.1,2.3,5.6c1.5,1.5,3.5,2.3,5.6,2.3c2.1,0,4.1-0.8,5.6-2.3c1.5-1.5,2.3-3.5,2.3-5.6
			c0-2.1-0.8-4.1-2.3-5.6c-1.5-1.5-3.5-2.3-5.6-2.3C713.9,523.5,711.9,524.4,710.4,525.9z"/>
		<path class="st0" d="M740.3,523.8c-0.3-0.1-0.7-0.2-1.1-0.2c-0.7,0-1.3,0.3-1.8,0.7c-0.4,0.4-0.7,1.1-0.7,1.7
			c0,1.9,1.9,2.6,3.3,3.2c3,1.3,5.4,2.7,5.4,6.4c0,1.7-0.7,3.3-1.9,4.6c-1.2,1.2-2.8,1.9-4.6,1.9c-1.2,0-2.3-0.3-3.3-0.9
			c-1-0.6-1.8-1.5-2.4-2.4v0l2.4-1.3l0,0.1c0.3,0.6,0.8,1.1,1.3,1.4c0.6,0.3,1.3,0.5,1.9,0.5c1,0,2-0.4,2.7-1.1
			c0.7-0.7,1.1-1.7,1.1-2.7c0-2.3-1.9-3.1-3.7-3.9c-2.7-1.2-4.9-2.3-4.9-5.6c0-1.4,0.5-2.7,1.5-3.6c1-1,2.3-1.5,3.7-1.5
			c0.8,0,1.5,0.2,2.2,0.5c0.7,0.3,1.3,0.8,1.8,1.4l-2.1,1.7C741,524.2,740.7,524,740.3,523.8z"/>
	</g>
</g>
</svg>
