<?xml version="1.0" encoding="UTF-8" standalone="no"?>
<svg
   xmlns:dc="http://purl.org/dc/elements/1.1/"
   xmlns:cc="http://creativecommons.org/ns#"
   xmlns:rdf="http://www.w3.org/1999/02/22-rdf-syntax-ns#"
   xmlns:svg="http://www.w3.org/2000/svg"
   xmlns="http://www.w3.org/2000/svg"
   viewBox="0 0 933.33331 1108.9653"
   height="1108.9653"
   width="933.33331"
   xml:space="preserve"
   id="svg2"
   version="1.1"><metadata
     id="metadata8"><rdf:RDF><cc:Work
         rdf:about=""><dc:format>image/svg+xml</dc:format><dc:type
           rdf:resource="http://purl.org/dc/dcmitype/StillImage" /></cc:Work></rdf:RDF></metadata><defs
     id="defs6"><clipPath
       id="clipPath24"
       clipPathUnits="userSpaceOnUse"><path
         id="path22"
         d="M 0,831.724 H 700 V 0 H 0 Z" /></clipPath><clipPath
       id="clipPath40"
       clipPathUnits="userSpaceOnUse"><path
         id="path38"
         d="M 107.542,258.372 H 595.51 V 116.891 H 107.542 Z" /></clipPath><clipPath
       id="clipPath44"
       clipPathUnits="userSpaceOnUse"><path
         id="path42"
         d="m 208.801,186.505 c -0.023,-0.217 -0.061,-0.571 -0.084,-0.788 l -0.036,-0.235 -0.052,-0.235 c -0.038,-0.157 -0.075,-0.313 -0.113,-0.468 -0.011,-0.045 -0.017,-0.061 -0.025,-0.087 l -0.022,-0.071 -0.045,-0.143 -0.045,-0.142 -0.011,-0.036 -0.037,-0.108 -0.009,-0.024 -0.038,-0.095 c -0.052,-0.126 -0.103,-0.251 -0.154,-0.375 -0.096,-0.252 -0.229,-0.483 -0.348,-0.716 -0.249,-0.46 -0.532,-0.885 -0.837,-1.272 -1.225,-1.552 -2.708,-2.231 -4.003,-2.787 -0.016,-0.006 -0.228,-0.077 -0.444,-0.148 -0.038,-0.013 -0.076,-0.018 -0.113,-0.018 -0.189,0 -0.356,0.154 -0.355,0.358 l 0.038,5.057 c 10e-4,0.199 0.164,0.353 0.354,0.353 0.024,0 0.047,-0.002 0.071,-0.007 0.196,-0.039 0.403,-0.082 0.484,-0.082 0.019,0 0.031,0.002 0.035,0.007 0.146,0.182 0.277,0.38 0.392,0.59 0.051,0.107 0.121,0.21 0.158,0.325 l 0.071,0.168 0.018,0.039 0.037,0.118 0.045,0.143 0.023,0.072 c 0.007,0.022 0.018,0.054 0.016,0.058 0.006,0.042 0.013,0.083 0.022,0.124 l 0.017,0.062 0.012,0.095 0.03,0.191 c 0.016,0.259 0.038,0.529 0.002,0.805 -0.004,0.139 -0.041,0.276 -0.059,0.417 -0.037,0.136 -0.059,0.279 -0.11,0.414 -0.081,0.276 -0.203,0.543 -0.35,0.793 -0.141,0.255 -0.323,0.482 -0.522,0.688 -0.097,0.107 -0.209,0.194 -0.317,0.288 l -0.009,0.008 -0.006,0.004 -0.075,0.055 -0.075,0.055 c -0.022,0.016 -0.057,0.043 -0.063,0.045 l -0.069,0.043 -0.034,0.022 -0.052,0.031 c -0.546,0.331 -1.258,0.579 -2.071,0.71 -0.203,0.032 -0.412,0.059 -0.626,0.077 -0.052,0.006 -0.106,0.01 -0.161,0.013 l -0.081,0.005 -0.04,0.003 -0.018,0.001 -0.366,0.009 -0.417,0.01 -0.105,0.003 h -0.003 c -0.031,0 -0.053,-0.002 -0.081,-0.003 l -0.162,-0.007 -0.326,-0.011 -0.163,-0.004 -0.181,-0.016 c -1.933,-0.124 -3.967,-0.667 -6.034,-1.469 -2.07,-0.8 -4.172,-1.85 -6.329,-2.942 -2.158,-1.091 -4.384,-2.231 -6.747,-3.183 -1.18,-0.475 -2.394,-0.903 -3.64,-1.246 -0.621,-0.175 -1.254,-0.321 -1.888,-0.447 -0.319,-0.056 -0.634,-0.123 -0.955,-0.168 l -0.48,-0.065 -0.24,-0.033 -0.12,-0.016 -0.059,-0.007 -0.111,-0.011 -0.423,-0.038 c -0.061,-0.006 -0.166,-0.011 -0.256,-0.016 l -0.278,-0.012 -0.275,-0.011 h -0.254 c -0.035,0.001 -0.07,0.001 -0.105,0.001 -0.044,0 -0.087,0 -0.131,0 -0.091,0 -0.181,10e-4 -0.272,0.006 -0.675,0.019 -1.344,0.1 -2.003,0.217 -1.314,0.244 -2.596,0.697 -3.735,1.394 -0.573,0.343 -1.095,0.764 -1.57,1.217 -0.114,0.118 -0.228,0.237 -0.34,0.355 l -0.084,0.089 c 0.007,-0.008 0.009,-0.011 0.009,-0.011 0,0 -0.086,0.101 -0.085,0.101 0,0 0,-0.001 0,-0.001 l -0.042,0.052 -0.111,0.139 -0.111,0.137 c -0.041,0.052 -0.105,0.144 -0.155,0.215 -0.102,0.148 -0.219,0.31 -0.301,0.449 -0.665,1.091 -1.026,2.26 -1.155,3.406 -0.118,1.147 -0.014,2.277 0.304,3.324 0.071,0.263 0.173,0.517 0.269,0.768 0.045,0.126 0.109,0.247 0.164,0.369 l 0.085,0.181 0.043,0.09 0.011,0.023 c 0.005,0.008 0.007,0.011 0.006,0.011 l -0.004,-0.007 c -0.001,0 0.009,0.017 0.057,0.105 l 0.018,0.031 c 0.047,0.083 0.095,0.165 0.142,0.247 0.05,0.086 0.078,0.144 0.174,0.286 0.083,0.122 0.165,0.244 0.247,0.364 l 0.125,0.178 0.118,0.147 c 0.62,0.786 1.323,1.406 2.018,1.892 0.609,0.427 1.012,0.829 2.338,1.204 0.033,0.009 0.065,0.013 0.096,0.013 0.19,0 0.356,-0.156 0.354,-0.359 l -0.041,-5.588 c -10e-4,-0.203 -0.167,-0.354 -0.355,-0.354 -0.041,0 -0.082,0.007 -0.124,0.023 -0.259,0.096 -0.55,0.209 -0.683,0.24 -0.022,-0.038 -0.047,-0.084 -0.07,-0.123 -0.04,-0.069 -0.08,-0.14 -0.12,-0.211 l -0.018,-0.039 -0.037,-0.08 c -0.023,-0.054 -0.055,-0.104 -0.072,-0.162 -0.04,-0.114 -0.091,-0.225 -0.119,-0.348 -0.148,-0.477 -0.196,-1.026 -0.139,-1.587 0.039,-0.279 0.091,-0.563 0.185,-0.837 0.097,-0.271 0.212,-0.54 0.365,-0.785 0.035,-0.061 0.061,-0.085 0.087,-0.132 0.018,-0.025 0.015,-0.033 0.047,-0.074 l 0.111,-0.138 0.112,-0.138 0.001,-0.001 0.036,-0.036 0.148,-0.155 c 0.006,-0.006 0.013,-0.013 0.02,-0.019 0.225,-0.206 0.466,-0.409 0.756,-0.579 0.369,-0.224 0.8,-0.409 1.27,-0.555 l 0.123,16.776 -0.477,0.003 c -0.398,0.003 -0.719,0.366 -0.715,0.811 l 0.01,1.456 c 0.003,0.344 0.532,0.773 0.555,0.776 0.057,0.007 1.633,0.013 1.633,0.013 l 2.817,0.004 2.466,-0.037 c 0.396,-0.006 0.713,-0.368 0.709,-0.811 l -0.01,-1.461 c -0.003,-0.443 -0.326,-0.8 -0.722,-0.8 h -0.005 l -0.776,0.005 -0.122,-16.668 c 0.306,0.07 0.613,0.145 0.923,0.233 1.012,0.282 2.039,0.644 3.074,1.064 2.073,0.839 4.172,1.911 6.337,3.014 2.167,1.101 4.406,2.237 6.795,3.169 1.802,0.704 3.71,1.285 5.66,1.604 l 0.055,7.417 -0.503,0.004 c -0.398,0.003 -0.718,0.366 -0.715,0.811 l 0.011,1.455 c 0.003,0.443 0.326,0.801 0.722,0.801 h 0.004 l 1.461,-0.011 2.818,0.003 2.465,-0.037 c 0.396,-0.006 0.713,-0.368 0.71,-0.811 l -0.011,-1.461 c -0.003,-0.443 -0.326,-0.8 -0.722,-0.8 h -0.005 l -0.75,0.005 -0.053,-7.235 c 0.103,-0.014 0.207,-0.027 0.311,-0.043 1.319,-0.211 2.638,-0.628 3.819,-1.337 l 0.111,-0.066 0.124,-0.08 0.244,-0.162 0.165,-0.118 0.075,-0.054 0.037,-0.028 0.069,-0.052 0.026,-0.021 c 0.271,-0.221 0.536,-0.444 0.77,-0.689 0.474,-0.484 0.879,-1.008 1.194,-1.558 0.323,-0.548 0.577,-1.115 0.754,-1.692 0.099,-0.282 0.16,-0.572 0.227,-0.856 0.002,-0.007 0.003,-0.013 0.004,-0.02 0.049,-0.289 0.108,-0.572 0.127,-0.86 0.051,-0.445 0.049,-0.89 0.024,-1.328 m -6.785,-14.783 c -0.003,-0.443 -0.326,-0.8 -0.722,-0.8 h -0.005 l -6.738,0.049 c -0.398,0.003 -0.718,0.366 -0.715,0.811 l 0.011,1.456 c 0.003,0.443 0.326,0.8 0.722,0.8 h 0.004 l 0.503,-0.003 0.106,14.338 c 0.749,0.164 1.489,0.283 2.217,0.349 l 0.18,0.02 0.163,0.009 0.325,0.021 0.163,0.011 c 0.028,0.002 0.051,0.005 0.083,0.006 l 0.105,0.001 0.417,0.005 0.367,0.004 h 0.017 l 0.04,-0.001 0.082,-0.003 c 0.054,-10e-4 0.108,-0.002 0.161,-0.005 0.215,-0.009 0.424,-0.026 0.628,-0.048 0.185,-0.02 0.365,-0.046 0.54,-0.077 l -0.108,-14.66 0.755,-0.011 c 0.396,-0.006 0.713,-0.368 0.71,-0.811 z m -28.181,0.208 c -0.004,-0.444 -0.326,-0.801 -0.722,-0.801 h -0.005 l -6.738,0.05 c -0.399,0.003 -0.719,0.366 -0.715,0.811 l 0.01,1.455 c 0.004,0.444 0.326,0.801 0.722,0.801 h 0.005 l 0.478,-0.004 0.038,5.16 c 0.067,-0.009 0.135,-0.021 0.202,-0.03 0.625,-0.077 1.259,-0.124 1.897,-0.124 0.037,0 0.074,0 0.112,0 0.025,0 0.05,-10e-4 0.076,-10e-4 0.143,0 0.287,0.009 0.431,0.012 l 0.254,0.008 0.275,0.019 0.277,0.02 c 0.09,0.008 0.195,0.015 0.255,0.023 l 0.422,0.047 0.11,0.013 0.06,0.009 0.119,0.018 0.238,0.037 0.478,0.074 c 0.094,0.014 0.187,0.033 0.28,0.051 l -0.039,-5.365 0.78,-0.011 c 0.397,-0.006 0.714,-0.369 0.71,-0.811 z m 38.594,17.238 c -0.009,0.052 -0.019,0.104 -0.027,0.156 l -10e-4,0.005 -0.001,0.006 c -0.013,0.077 -0.029,0.156 -0.047,0.233 l -0.003,0.012 -0.003,0.012 -0.029,0.126 c -0.066,0.284 -0.148,0.634 -0.281,1.031 -0.26,0.826 -0.624,1.64 -1.082,2.423 -0.467,0.81 -1.055,1.581 -1.749,2.291 -0.368,0.385 -0.747,0.705 -1.102,0.994 l -0.019,0.015 -0.055,0.046 -0.057,0.043 -0.069,0.052 -0.03,0.023 -0.031,0.023 -0.038,0.027 -0.075,0.055 -0.011,0.008 -0.011,0.007 -0.164,0.118 -0.054,0.039 -0.055,0.036 -0.244,0.163 -0.021,0.013 -0.02,0.013 -0.124,0.08 -0.061,0.04 -0.062,0.037 -0.103,0.061 c -0.704,0.421 -1.457,0.78 -2.254,1.073 l 0.012,1.658 c 0.909,0.838 1.486,2.045 1.496,3.384 l 0.011,1.461 c 0.018,2.523 -1.981,4.606 -4.457,4.643 l -2.466,0.037 h -0.03 -0.031 l -2.802,-0.003 -1.444,0.011 h -0.014 -0.018 c -2.477,0 -4.508,-2.053 -4.527,-4.576 l -0.01,-1.456 c -0.009,-1.152 0.402,-2.259 1.157,-3.115 0.014,-0.016 0.029,-0.032 0.043,-0.049 l -0.015,-2.054 c -1.066,-0.302 -2.155,-0.67 -3.262,-1.103 -2.576,-1.005 -4.997,-2.235 -7.133,-3.32 l -0.093,-0.047 c -1.623,-0.827 -3.176,-1.618 -4.676,-2.289 l 0.064,8.66 c 0.925,0.839 1.512,2.056 1.522,3.408 l 0.011,1.461 c 0.018,2.523 -1.981,4.606 -4.457,4.643 l -2.466,0.037 h -0.03 -0.031 l -2.818,-0.003 h -0.005 -0.005 c -1.81,-0.008 -1.831,-0.01 -2.098,-0.044 -0.996,-0.127 -1.832,-0.6 -2.632,-1.489 -1.02,-1.133 -1.241,-2.275 -1.247,-3.033 l -0.01,-1.456 c -0.007,-0.883 0.232,-1.711 0.652,-2.416 -0.827,-0.357 -1.396,-0.745 -1.91,-1.122 -0.066,-0.048 -0.132,-0.097 -0.202,-0.146 -1.072,-0.75 -2.018,-1.637 -2.808,-2.635 l -0.109,-0.135 -0.074,-0.093 -0.069,-0.097 -0.125,-0.178 -0.021,-0.03 -0.021,-0.03 -0.176,-0.261 -0.07,-0.103 c -0.158,-0.234 -0.249,-0.395 -0.298,-0.481 l -0.01,-0.017 -0.009,-0.016 -0.006,-0.01 -0.084,-0.147 -0.057,-0.099 -0.02,-0.034 -0.019,-0.034 -0.019,-0.033 c -0.023,-0.043 -0.045,-0.085 -0.066,-0.127 l -0.001,0.001 -0.042,-0.078 -0.038,-0.079 -0.011,-0.023 -0.003,-0.005 -0.003,-0.006 -0.043,-0.09 -0.003,-0.006 -0.003,-0.007 -0.086,-0.181 -0.017,-0.036 -0.016,-0.036 -0.02,-0.042 c -0.056,-0.118 -0.146,-0.31 -0.235,-0.549 l -0.019,-0.05 c -0.104,-0.27 -0.232,-0.602 -0.343,-1 -0.455,-1.525 -0.601,-3.129 -0.432,-4.766 l 0.002,-0.018 0.002,-0.017 c 0.199,-1.777 0.763,-3.439 1.675,-4.941 0.135,-0.227 0.274,-0.426 0.385,-0.586 l 0.048,-0.069 0.013,-0.018 0.012,-0.018 0.024,-0.034 c 0.066,-0.093 0.149,-0.21 0.241,-0.327 l 0.015,-0.02 0.016,-0.02 0.111,-0.137 0.061,-0.076 c 0.132,-0.181 0.279,-0.351 0.439,-0.508 l 0.011,-0.012 0.014,-0.014 0.16,-0.167 0.18,-0.189 0.062,-0.065 0.065,-0.062 c 0.728,-0.692 1.455,-1.253 2.222,-1.715 0.659,-0.401 1.357,-0.749 2.09,-1.041 l -0.014,-1.961 c -0.75,-0.818 -1.213,-1.911 -1.222,-3.11 l -0.011,-1.455 c -0.018,-2.542 1.997,-4.625 4.491,-4.643 l 6.739,-0.05 h 0.014 0.019 c 2.477,0 4.507,2.053 4.526,4.576 l 0.011,1.461 c 0.01,1.352 -0.56,2.578 -1.472,3.43 l 0.013,1.763 c 1.106,0.328 2.236,0.726 3.434,1.208 2.395,0.966 4.593,2.078 6.717,3.153 l 0.325,0.164 c 1.677,0.849 3.221,1.619 4.688,2.256 l -0.066,-8.934 c -0.764,-0.819 -1.237,-1.923 -1.247,-3.136 l -0.01,-1.456 c -0.009,-1.152 0.402,-2.258 1.157,-3.114 0.848,-0.962 2.063,-1.519 3.334,-1.529 l 6.738,-0.05 h 0.014 0.019 c 2.477,0 4.507,2.053 4.526,4.577 l 0.011,1.461 c 0.007,0.941 -0.267,1.82 -0.741,2.555 1.358,0.612 3.243,1.617 4.842,3.644 0.445,0.564 0.847,1.175 1.194,1.815 l 0.021,0.038 0.02,0.039 c 0.021,0.041 0.043,0.083 0.065,0.124 0.119,0.227 0.281,0.535 0.431,0.916 l 0.076,0.185 0.065,0.159 0.004,0.011 0.005,0.012 0.038,0.094 0.006,0.015 0.006,0.014 0.009,0.024 0.035,0.089 0.031,0.091 0.036,0.109 0.012,0.034 0.011,0.035 0.011,0.036 0.046,0.147 0.043,0.138 0.023,0.072 0.005,0.017 v 0 c 0.024,0.074 0.053,0.172 0.086,0.304 l 10e-4,0.007 0.002,0.006 0.061,0.252 0.052,0.215 0.01,0.043 0.01,0.042 0.051,0.236 0.025,0.115 0.018,0.117 0.036,0.235 0.013,0.086 0.009,0.086 0.044,0.409 0.041,0.379 0.01,0.093 0.005,0.094 c 0.04,0.689 0.029,1.311 -0.034,1.898 -0.031,0.39 -0.091,0.729 -0.136,0.983 m 13.153,-2.012 -0.002,-0.005 c -0.653,-1.145 -2.401,-0.675 -2.391,0.643 v 0.01 c 0.009,1.3 1.727,1.758 2.383,0.637 l 0.003,-0.005 c 0.231,-0.395 0.234,-0.883 0.007,-1.28 m -5.329,-9.026 c -0.002,-0.219 -0.06,-0.433 -0.168,-0.623 l -5.324,-9.346 c -0.643,-1.13 0.613,-2.388 1.743,-1.746 l 0.517,0.293 c 0.2,0.113 0.366,0.279 0.48,0.479 l 0.278,0.487 c 0.652,1.145 2.401,0.675 2.39,-0.643 -0.003,-0.457 -0.25,-0.878 -0.648,-1.103 l -25.576,-14.512 c -0.19,-0.108 -0.405,-0.165 -0.624,-0.166 l -11.333,-0.066 c -1.301,-0.007 -1.762,-1.726 -0.639,-2.383 l 0.513,-0.301 c 0.198,-0.116 0.424,-0.176 0.654,-0.175 l 1.138,0.007 c 1.318,0.007 1.785,-1.742 0.639,-2.392 l -0.003,-0.002 c -0.398,-0.226 -0.885,-0.222 -1.279,0.01 l -25.354,14.893 c -0.188,0.11 -0.345,0.268 -0.456,0.457 l -5.828,9.96 c -0.656,1.122 -2.374,0.664 -2.383,-0.636 l -0.005,-0.593 c -0.001,-0.231 0.059,-0.457 0.175,-0.656 l 0.681,-1.163 c 0.665,-1.138 -0.616,-2.417 -1.752,-1.749 l -0.005,0.002 c -0.394,0.232 -0.634,0.656 -0.631,1.113 l 0.22,29.406 c 0.002,0.219 0.06,0.433 0.168,0.624 l 5.658,9.93 c 0.643,1.13 -0.613,2.388 -1.743,1.746 l -0.515,-0.292 c -0.201,-0.114 -0.367,-0.279 -0.481,-0.479 l -0.613,-1.077 c -0.652,-1.145 -2.4,-0.675 -2.391,0.643 v 0.006 c 0.004,0.457 0.251,0.877 0.648,1.103 l 25.575,14.51 c 0.19,0.108 0.405,0.165 0.624,0.166 l 10.764,0.062 c 1.3,0.008 1.761,1.724 0.64,2.383 l -0.512,0.301 c -0.199,0.117 -0.425,0.178 -0.656,0.176 l -0.568,-0.003 c -1.318,-0.008 -1.785,1.742 -0.638,2.392 l 0.003,0.002 c 0.398,0.226 0.886,0.222 1.28,-0.009 l 25.352,-14.893 c 0.189,-0.111 0.346,-0.268 0.457,-0.457 l 5.61,-9.587 c 0.656,-1.122 2.373,-0.664 2.383,0.636 l 0.005,0.594 c 10e-4,0.23 -0.059,0.457 -0.175,0.656 l -0.461,0.787 c -0.666,1.138 0.616,2.417 1.752,1.749 l 0.003,-0.001 c 0.394,-0.232 0.635,-0.656 0.632,-1.113 z m -14.715,-26.162 -0.005,-0.008 c -0.226,-0.398 -0.648,-0.644 -1.105,-0.647 h -0.01 c -1.318,-0.007 -1.785,1.742 -0.639,2.392 l 0.015,0.009 c 1.131,0.641 2.387,-0.616 1.744,-1.746 m -41.612,-0.888 h -0.007 c -0.457,-0.003 -0.881,0.239 -1.112,0.633 l -0.003,0.006 c -0.666,1.138 0.615,2.417 1.752,1.749 l 0.01,-0.006 c 1.121,-0.658 0.66,-2.375 -0.64,-2.382 m -19.188,36.232 c -0.01,-1.3 -1.728,-1.759 -2.384,-0.637 l -0.002,0.003 c -0.231,0.395 -0.234,0.882 -0.007,1.279 l 0.002,0.004 c 0.652,1.145 2.4,0.675 2.391,-0.643 z m 17.655,35.836 0.002,0.005 c 0.227,0.397 0.648,0.643 1.105,0.646 h 0.005 c 1.318,0.007 1.785,-1.742 0.639,-2.392 l -0.008,-0.004 c -1.13,-0.642 -2.386,0.616 -1.743,1.745 m 41.612,0.883 h 0.002 c 0.457,0.003 0.881,-0.238 1.112,-0.633 l 0.001,-0.002 c 0.665,-1.137 -0.616,-2.416 -1.753,-1.749 l -0.003,0.002 c -1.12,0.658 -0.659,2.375 0.641,2.382 m 42.291,-2.994 h 7.886 V 205.94 h 14.59 v 15.097 h 7.887 v -39.432 h -7.887 v 16.449 h -14.59 v -16.449 h -7.886 z m 47.258,-31.546 h 26.138 v -7.887 h -26.138 z m 0,16.392 h 21.8 v -7.886 h -21.8 z m 0,15.21 h 26.307 v -7.887 h -26.307 z m 46.864,0 10.534,-22.195 3.492,6.648 -7.604,15.547 h 8.731 l 10.252,-21.856 10.309,21.856 h 8.731 l -18.082,-39.488 h -1.915 l -6.591,14.477 -6.647,-14.477 h -1.915 l -18.026,39.488 z m 55.964,-50.984 h 6.091 c 1.219,0 2.338,-0.198 3.357,-0.592 1.018,-0.394 1.896,-0.941 2.632,-1.64 0.736,-0.699 1.305,-1.521 1.707,-2.465 0.402,-0.944 0.602,-1.967 0.602,-3.067 V 162.3 c 0,-1.1 -0.2,-2.126 -0.602,-3.078 -0.402,-0.952 -0.971,-1.778 -1.707,-2.476 -0.736,-0.699 -1.614,-1.249 -2.632,-1.651 -1.019,-0.401 -2.138,-0.602 -3.357,-0.602 h -6.091 z m 2.559,50.984 h 7.886 v -31.602 h 14.703 v -7.83 h -22.589 z m 38.922,-31.602 h 26.138 v -7.887 h -26.138 z m 0,16.392 h 21.8 v -7.886 h -21.8 z m 0,15.21 h 26.307 v -7.887 h -26.307 z m 42.92,0 h 29.8 v -7.887 h -10.929 v -31.601 h -7.886 v 31.601 h -10.985 z m 45.568,0 h 29.799 v -7.887 h -10.928 v -31.601 h -7.887 v 31.601 h -10.984 z m 28.286,-61.983 c 0,-0.773 -0.141,-1.46 -0.421,-2.063 -0.281,-0.602 -0.673,-1.108 -1.175,-1.517 -0.502,-0.41 -1.102,-0.722 -1.799,-0.937 -0.696,-0.215 -1.468,-0.323 -2.316,-0.323 -1.19,0 -2.357,0.204 -3.502,0.613 -1.145,0.409 -2.187,1.037 -3.124,1.885 l 2.031,2.431 c 0.714,-0.58 1.446,-1.041 2.197,-1.383 0.751,-0.342 1.572,-0.513 2.465,-0.513 0.714,0 1.267,0.131 1.662,0.391 0.394,0.26 0.591,0.62 0.591,1.081 v 0.045 c 0,0.223 -0.041,0.42 -0.123,0.592 -0.082,0.17 -0.239,0.331 -0.47,0.479 -0.231,0.149 -0.552,0.298 -0.961,0.447 -0.411,0.148 -0.944,0.304 -1.599,0.468 -0.791,0.193 -1.507,0.409 -2.148,0.647 -0.642,0.237 -1.185,0.532 -1.633,0.881 -0.447,0.349 -0.794,0.784 -1.04,1.305 -0.246,0.52 -0.37,1.167 -0.37,1.941 v 0.045 c 0,0.713 0.134,1.356 0.4,1.929 0.265,0.573 0.639,1.067 1.119,1.483 0.48,0.417 1.053,0.737 1.72,0.96 0.667,0.223 1.402,0.335 2.205,0.335 1.145,0 2.197,-0.171 3.156,-0.514 0.96,-0.342 1.841,-0.833 2.644,-1.472 l -1.785,-2.587 c -0.699,0.475 -1.382,0.85 -2.052,1.126 -0.669,0.275 -1.338,0.413 -2.008,0.413 -0.669,0 -1.171,-0.13 -1.505,-0.391 -0.335,-0.26 -0.502,-0.584 -0.502,-0.97 v -0.045 c 0,-0.253 0.048,-0.472 0.145,-0.658 0.097,-0.186 0.272,-0.353 0.525,-0.502 0.254,-0.149 0.601,-0.29 1.041,-0.424 0.44,-0.134 0.995,-0.29 1.666,-0.469 0.79,-0.208 1.495,-0.442 2.114,-0.702 0.619,-0.26 1.141,-0.572 1.566,-0.937 0.425,-0.364 0.745,-0.792 0.961,-1.282 0.216,-0.491 0.325,-1.079 0.325,-1.763 z m -48.699,3.19 c 0,-1.115 -0.208,-2.16 -0.625,-3.134 -0.417,-0.974 -0.992,-1.829 -1.729,-2.565 -0.736,-0.737 -1.614,-1.317 -2.632,-1.74 -1.019,-0.424 -2.131,-0.636 -3.335,-0.636 -1.205,0 -2.313,0.212 -3.324,0.636 -1.012,0.423 -1.885,0.996 -2.622,1.717 -0.736,0.722 -1.308,1.569 -1.717,2.544 -0.409,0.973 -0.614,2.019 -0.614,3.134 v 0.044 c 0,1.116 0.209,2.161 0.625,3.135 0.417,0.974 0.993,1.829 1.729,2.565 0.736,0.737 1.614,1.317 2.633,1.74 1.018,0.424 2.13,0.636 3.335,0.636 1.204,0 2.312,-0.212 3.324,-0.636 1.011,-0.423 1.884,-0.996 2.621,-1.717 0.736,-0.722 1.308,-1.57 1.717,-2.544 0.409,-0.974 0.614,-2.019 0.614,-3.134 z m -54.164,-7.807 h -3.436 v 15.616 h 3.436 z m -93.248,6.804 c 0,-1.19 -0.16,-2.224 -0.48,-3.102 -0.32,-0.877 -0.777,-1.609 -1.372,-2.197 -0.595,-0.588 -1.316,-1.026 -2.164,-1.316 -0.847,-0.29 -1.792,-0.435 -2.833,-0.435 -2.097,0 -3.748,0.581 -4.952,1.74 -1.205,1.16 -1.807,2.893 -1.807,5.198 v 8.924 h 3.435 v -8.835 c 0,-1.279 0.297,-2.242 0.892,-2.888 0.595,-0.647 1.421,-0.971 2.477,-0.971 1.056,0 1.881,0.312 2.476,0.937 0.595,0.625 0.892,1.562 0.892,2.811 v 8.946 h 3.436 z m -50.35,5.644 h -4.752 v -12.448 h -3.435 v 12.448 h -4.752 v 3.168 h 12.939 z m -49.167,-7.831 c 0,-0.773 -0.14,-1.46 -0.421,-2.063 -0.281,-0.602 -0.673,-1.108 -1.175,-1.517 -0.502,-0.41 -1.102,-0.722 -1.798,-0.937 -0.697,-0.215 -1.469,-0.323 -2.317,-0.323 -1.19,0 -2.357,0.204 -3.502,0.613 -1.146,0.409 -2.187,1.037 -3.124,1.885 l 2.031,2.431 c 0.713,-0.58 1.446,-1.041 2.197,-1.383 0.751,-0.342 1.573,-0.513 2.465,-0.513 0.714,0 1.268,0.131 1.662,0.391 0.394,0.26 0.591,0.62 0.591,1.081 v 0.045 c 0,0.223 -0.041,0.42 -0.123,0.592 -0.082,0.17 -0.239,0.331 -0.47,0.479 -0.231,0.149 -0.552,0.298 -0.962,0.447 -0.41,0.148 -0.943,0.304 -1.599,0.468 -0.79,0.193 -1.506,0.409 -2.147,0.647 -0.642,0.237 -1.186,0.532 -1.633,0.881 -0.447,0.349 -0.794,0.784 -1.04,1.305 -0.246,0.52 -0.369,1.167 -0.369,1.941 v 0.045 c 0,0.713 0.133,1.356 0.398,1.929 0.266,0.573 0.639,1.067 1.12,1.483 0.48,0.417 1.053,0.737 1.72,0.96 0.667,0.223 1.402,0.335 2.205,0.335 1.145,0 2.197,-0.171 3.156,-0.514 0.96,-0.342 1.841,-0.833 2.644,-1.472 l -1.784,-2.587 c -0.7,0.475 -1.384,0.85 -2.053,1.126 -0.669,0.275 -1.339,0.413 -2.008,0.413 -0.669,0 -1.171,-0.13 -1.505,-0.391 -0.335,-0.26 -0.502,-0.584 -0.502,-0.97 v -0.045 c 0,-0.253 0.048,-0.472 0.145,-0.658 0.097,-0.186 0.272,-0.353 0.525,-0.502 0.254,-0.149 0.601,-0.29 1.041,-0.424 0.44,-0.134 0.995,-0.29 1.666,-0.469 0.79,-0.208 1.495,-0.442 2.114,-0.702 0.619,-0.26 1.141,-0.572 1.566,-0.937 0.424,-0.364 0.745,-0.792 0.961,-1.282 0.217,-0.491 0.325,-1.079 0.325,-1.763 z M 584.691,127.851 V 247.412 H 118.762 V 127.851 h 107.913 z m -182.218,29.742 h -2.655 v 9.415 h 2.655 c 0.698,0 1.338,-0.116 1.918,-0.347 0.58,-0.23 1.074,-0.553 1.484,-0.969 0.408,-0.417 0.728,-0.915 0.959,-1.495 0.23,-0.581 0.345,-1.213 0.345,-1.897 v -0.044 c 0,-0.699 -0.115,-1.331 -0.345,-1.896 -0.231,-0.565 -0.551,-1.056 -0.959,-1.473 -0.41,-0.416 -0.904,-0.736 -1.484,-0.959 -0.58,-0.223 -1.22,-0.335 -1.918,-0.335 M 502,164.197 c 0.231,-0.595 0.346,-1.227 0.346,-1.897 v -0.044 c 0,-0.669 -0.115,-1.298 -0.346,-1.885 -0.231,-0.588 -0.55,-1.105 -0.959,-1.551 -0.409,-0.446 -0.903,-0.796 -1.484,-1.048 -0.58,-0.253 -1.212,-0.379 -1.895,-0.379 -0.7,0 -1.336,0.13 -1.908,0.39 -0.573,0.26 -1.071,0.613 -1.494,1.059 -0.424,0.447 -0.751,0.968 -0.982,1.563 -0.231,0.594 -0.346,1.226 -0.346,1.895 v 0.045 c 0,0.669 0.115,1.298 0.346,1.885 0.231,0.587 0.55,1.105 0.959,1.551 0.409,0.446 0.9,0.795 1.472,1.048 0.573,0.253 1.209,0.379 1.908,0.379 0.684,0 1.316,-0.13 1.896,-0.39 0.58,-0.261 1.082,-0.613 1.506,-1.059 0.424,-0.447 0.75,-0.967 0.981,-1.562 m 85.556,-39.352 H 115.497 V 250.418 H 587.556 Z M 107.542,116.891 H 595.51 V 258.372 H 107.542 Z" /></clipPath><clipPath
       id="clipPath48"
       clipPathUnits="userSpaceOnUse"><path
         id="path46"
         d="M -32768,32767 H 32767 V -32768 H -32768 Z" /></clipPath><radialGradient
       id="radialGradient56"
       spreadMethod="pad"
       gradientTransform="matrix(179.62785,0,0,-179.62785,351.52612,187.63158)"
       gradientUnits="userSpaceOnUse"
       r="1"
       cy="0"
       cx="0"
       fy="0"
       fx="0"><stop
         id="stop50"
         offset="0"
         style="stop-opacity:1;stop-color:#ffffff" /><stop
         id="stop52"
         offset="0.03729518"
         style="stop-opacity:1;stop-color:#ffffff" /><stop
         id="stop54"
         offset="1"
         style="stop-opacity:0;stop-color:#ffffff" /></radialGradient><mask
       id="mask58"
       height="1"
       width="1"
       y="0"
       x="0"
       maskUnits="userSpaceOnUse"><g
         id="g68"><g
           id="g66"
           clip-path="url(#clipPath48)"><g
             id="g64"><g
               id="g62"><path
                 id="path60"
                 style="fill:url(#radialGradient56);stroke:none"
                 d="M -32768,32767 H 32767 V -32768 H -32768 Z" /></g></g></g></g></mask><radialGradient
       id="radialGradient76"
       spreadMethod="pad"
       gradientTransform="matrix(179.62785,0,0,-179.62785,351.52612,187.63158)"
       gradientUnits="userSpaceOnUse"
       r="1"
       cy="0"
       cx="0"
       fy="0"
       fx="0"><stop
         id="stop70"
         offset="0"
         style="stop-opacity:1;stop-color:#ffffff" /><stop
         id="stop72"
         offset="0.03729518"
         style="stop-opacity:1;stop-color:#ffffff" /><stop
         id="stop74"
         offset="1"
         style="stop-opacity:1;stop-color:#231f20" /></radialGradient></defs><g
     transform="matrix(1.3333333,0,0,-1.3333333,0,1108.9653)"
     id="g10"><path
       id="path12"
       style="fill:#d3c7ba;fill-opacity:1;fill-rule:nonzero;stroke:none"
       d="M 0,0 H 700 V 831.724 H 0 Z" /><g
       transform="translate(591.5328,254.3949)"
       id="g14"><path
         id="path16"
         style="fill:none;stroke:#5a5d6c;stroke-width:7.954;stroke-linecap:butt;stroke-linejoin:miter;stroke-miterlimit:10;stroke-dasharray:none;stroke-opacity:1"
         d="M 0,0 V -133.527 H -369.155 -480.013 V 0 Z" /></g><g
       id="g18"><g
         clip-path="url(#clipPath24)"
         id="g20"><g
           transform="translate(501.019,165.7586)"
           id="g26"><path
             id="path28"
             style="fill:#5a5d6c;fill-opacity:1;fill-rule:nonzero;stroke:none"
             d="m 0,0 c -0.424,0.446 -0.926,0.799 -1.506,1.059 -0.58,0.26 -1.212,0.39 -1.896,0.39 C -4.101,1.449 -4.737,1.323 -5.31,1.07 -5.882,0.817 -6.373,0.468 -6.782,0.022 -7.191,-0.424 -7.51,-0.941 -7.741,-1.529 -7.972,-2.116 -8.087,-2.744 -8.087,-3.414 v -0.044 c 0,-0.67 0.115,-1.302 0.346,-1.896 0.231,-0.595 0.558,-1.116 0.982,-1.562 0.423,-0.446 0.921,-0.8 1.494,-1.06 0.572,-0.26 1.208,-0.39 1.908,-0.39 0.683,0 1.315,0.127 1.895,0.38 0.58,0.252 1.075,0.602 1.484,1.048 0.409,0.446 0.728,0.963 0.959,1.551 0.231,0.587 0.346,1.215 0.346,1.884 v 0.045 c 0,0.669 -0.115,1.301 -0.346,1.896 C 0.75,-0.967 0.424,-0.447 0,0 M 55.131,55.334 H 25.332 V 47.448 H 36.316 V 15.846 h 7.887 V 47.448 H 55.131 Z M 53.618,-6.603 c 0,0.683 -0.109,1.271 -0.325,1.762 -0.216,0.49 -0.536,0.918 -0.961,1.283 -0.425,0.364 -0.947,0.676 -1.566,0.936 -0.619,0.26 -1.324,0.495 -2.114,0.703 -0.671,0.179 -1.226,0.335 -1.666,0.469 -0.44,0.134 -0.787,0.275 -1.041,0.424 -0.253,0.148 -0.428,0.315 -0.525,0.501 -0.097,0.187 -0.145,0.405 -0.145,0.658 v 0.045 c 0,0.386 0.167,0.71 0.502,0.971 0.335,0.26 0.836,0.39 1.505,0.39 0.669,0 1.339,-0.138 2.008,-0.413 C 49.96,0.851 50.643,0.475 51.342,0 l 1.785,2.588 c -0.803,0.639 -1.684,1.13 -2.644,1.472 -0.959,0.342 -2.011,0.513 -3.156,0.513 -0.803,0 -1.538,-0.112 -2.205,-0.335 -0.667,-0.223 -1.24,-0.543 -1.72,-0.959 -0.48,-0.416 -0.854,-0.911 -1.119,-1.483 -0.266,-0.573 -0.4,-1.217 -0.4,-1.93 v -0.045 c 0,-0.773 0.124,-1.42 0.37,-1.94 0.246,-0.521 0.593,-0.957 1.04,-1.306 0.448,-0.349 0.991,-0.643 1.633,-0.881 0.641,-0.238 1.357,-0.454 2.148,-0.647 0.655,-0.164 1.188,-0.32 1.599,-0.468 0.409,-0.149 0.73,-0.298 0.961,-0.446 0.231,-0.149 0.388,-0.309 0.47,-0.48 0.082,-0.171 0.123,-0.368 0.123,-0.591 v -0.045 c 0,-0.461 -0.197,-0.822 -0.591,-1.082 -0.395,-0.26 -0.948,-0.39 -1.662,-0.39 -0.893,0 -1.714,0.171 -2.465,0.513 -0.751,0.342 -1.483,0.803 -2.197,1.383 l -2.031,-2.432 c 0.937,-0.848 1.979,-1.475 3.124,-1.884 1.145,-0.41 2.312,-0.614 3.502,-0.614 0.848,0 1.62,0.108 2.316,0.323 0.697,0.216 1.297,0.528 1.799,0.938 0.502,0.408 0.894,0.914 1.175,1.516 0.28,0.603 0.421,1.291 0.421,2.064 z M 9.564,55.334 h -29.8 V 47.448 H -9.251 V 15.846 h 7.886 V 47.448 H 9.564 Z M 4.919,-3.414 c 0,1.116 -0.205,2.16 -0.614,3.135 -0.409,0.974 -0.981,1.821 -1.717,2.543 -0.737,0.721 -1.61,1.294 -2.621,1.717 -1.012,0.424 -2.12,0.636 -3.324,0.636 -1.205,0 -2.317,-0.212 -3.335,-0.636 -1.019,-0.423 -1.897,-1.003 -2.633,-1.739 -0.736,-0.736 -1.312,-1.592 -1.729,-2.566 -0.416,-0.974 -0.625,-2.018 -0.625,-3.134 v -0.045 c 0,-1.115 0.205,-2.16 0.614,-3.134 0.409,-0.975 0.981,-1.822 1.717,-2.543 0.737,-0.722 1.61,-1.294 2.622,-1.718 1.011,-0.424 2.119,-0.636 3.324,-0.636 1.204,0 2.316,0.212 3.335,0.636 1.018,0.424 1.896,1.004 2.632,1.74 0.737,0.736 1.312,1.591 1.729,2.565 0.417,0.975 0.625,2.019 0.625,3.135 z m -41.768,58.748 h -26.307 v -7.887 h 26.307 z m -0.169,-31.601 h -26.138 v -7.887 h 26.138 z M -49.245,4.35 h -3.436 v -15.616 h 3.436 z m -30.244,19.383 h -14.703 v 31.601 h -7.886 V 15.902 h 22.589 z M -90.248,-3.414 c 0,1.101 -0.2,2.123 -0.602,3.068 -0.402,0.944 -0.971,1.766 -1.707,2.465 -0.736,0.699 -1.614,1.245 -2.632,1.639 -1.019,0.394 -2.138,0.592 -3.357,0.592 h -6.091 v -15.616 h 6.091 c 1.219,0 2.338,0.201 3.357,0.602 1.018,0.402 1.896,0.952 2.632,1.651 0.736,0.699 1.305,1.525 1.707,2.476 0.402,0.952 0.602,1.978 0.602,3.079 z m -25.908,58.748 h -8.731 l -10.309,-21.856 -10.252,21.856 h -8.731 l 7.604,-15.547 -3.492,-6.648 -10.534,22.195 h -8.731 l 18.026,-39.488 h 1.915 l 6.647,14.477 6.591,-14.477 h 1.915 z M -142.493,4.35 h -3.436 v -8.946 c 0,-1.249 -0.297,-2.186 -0.892,-2.81 -0.595,-0.625 -1.42,-0.937 -2.476,-0.937 -1.056,0 -1.882,0.323 -2.477,0.97 -0.595,0.646 -0.892,1.609 -0.892,2.888 V 4.35 h -3.435 v -8.924 c 0,-2.305 0.602,-4.037 1.807,-5.198 1.204,-1.159 2.855,-1.739 4.952,-1.739 1.041,0 1.986,0.144 2.833,0.435 0.848,0.29 1.569,0.728 2.164,1.316 0.595,0.587 1.052,1.32 1.372,2.197 0.32,0.878 0.48,1.911 0.48,3.101 z m -38.665,50.984 h -26.307 v -7.887 h 26.307 z m -0.169,-31.601 h -26.138 v -7.887 h 26.138 z M -192.843,4.35 h -12.939 V 1.182 h 4.752 v -12.448 h 3.435 V 1.182 h 4.752 z m -31.517,50.928 h -7.887 V 40.181 h -14.59 v 15.097 h -7.886 V 15.846 h 7.886 v 16.449 h 14.59 V 15.846 h 7.887 z m -17.65,-61.881 c 0,0.683 -0.108,1.271 -0.325,1.762 -0.216,0.49 -0.537,0.918 -0.961,1.283 -0.425,0.364 -0.947,0.676 -1.566,0.936 -0.619,0.26 -1.324,0.495 -2.114,0.703 -0.671,0.179 -1.226,0.335 -1.666,0.469 -0.44,0.134 -0.787,0.275 -1.041,0.424 -0.253,0.148 -0.428,0.315 -0.525,0.501 -0.097,0.187 -0.146,0.405 -0.146,0.658 v 0.045 c 0,0.386 0.168,0.71 0.503,0.971 0.334,0.26 0.836,0.39 1.505,0.39 0.67,0 1.339,-0.138 2.008,-0.413 0.669,-0.275 1.353,-0.651 2.053,-1.126 l 1.784,2.588 c -0.803,0.639 -1.684,1.13 -2.644,1.472 -0.959,0.342 -2.011,0.513 -3.156,0.513 -0.803,0 -1.538,-0.112 -2.205,-0.335 -0.667,-0.223 -1.24,-0.543 -1.72,-0.959 -0.481,-0.416 -0.854,-0.911 -1.119,-1.483 -0.266,-0.573 -0.399,-1.217 -0.399,-1.93 v -0.045 c 0,-0.773 0.123,-1.42 0.369,-1.94 0.246,-0.521 0.592,-0.957 1.04,-1.306 0.447,-0.349 0.991,-0.643 1.633,-0.881 0.641,-0.238 1.357,-0.454 2.147,-0.647 0.656,-0.164 1.189,-0.32 1.599,-0.468 0.41,-0.149 0.731,-0.298 0.962,-0.446 0.231,-0.149 0.388,-0.309 0.47,-0.48 0.082,-0.171 0.123,-0.368 0.123,-0.591 v -0.045 c 0,-0.461 -0.197,-0.822 -0.591,-1.082 -0.394,-0.26 -0.948,-0.39 -1.662,-0.39 -0.892,0 -1.714,0.171 -2.465,0.513 -0.751,0.342 -1.484,0.803 -2.197,1.383 l -2.031,-2.432 c 0.937,-0.848 1.978,-1.475 3.124,-1.884 1.145,-0.41 2.312,-0.614 3.502,-0.614 0.848,0 1.62,0.108 2.317,0.323 0.696,0.216 1.296,0.528 1.798,0.938 0.502,0.408 0.894,0.914 1.175,1.516 0.281,0.603 0.421,1.291 0.421,2.064 z m -51.808,-10.049 v 0 0 z m -46.474,76.899 z m 62.462,-38.212 c -0.01,-1.318 1.738,-1.788 2.391,-0.643 l 0.002,0.006 c 0.227,0.397 0.224,0.884 -0.007,1.279 l -0.003,0.005 c -0.656,1.122 -2.374,0.663 -2.383,-0.637 z m -59.053,33.609 0.008,0.004 c 1.146,0.651 0.679,2.4 -0.639,2.392 h -0.005 c -0.457,-0.002 -0.878,-0.249 -1.105,-0.646 l -0.002,-0.004 c -0.643,-1.13 0.613,-2.388 1.743,-1.746 m 40.984,1.994 -10e-4,0.002 c -0.231,0.394 -0.655,0.635 -1.112,0.633 h -0.002 c -1.3,-0.008 -1.761,-1.724 -0.641,-2.383 l 0.003,-10e-4 c 1.137,-0.668 2.418,0.611 1.753,1.749 m -42.316,-71.677 0.003,-0.007 c 0.231,-0.394 0.655,-0.636 1.112,-0.633 h 0.007 c 1.3,0.008 1.761,1.724 0.64,2.383 l -0.01,0.006 c -1.137,0.667 -2.418,-0.612 -1.752,-1.749 m -18.066,35.592 v 0.006 c 0.009,1.318 -1.739,1.788 -2.391,0.643 l -0.002,-0.003 c -0.227,-0.397 -0.224,-0.885 0.007,-1.279 l 0.002,-0.004 c 0.656,-1.122 2.374,-0.663 2.384,0.637 m 74.784,-21.384 c 0.397,0.226 0.644,0.646 0.647,1.103 0.011,1.318 -1.738,1.788 -2.391,0.643 l -0.277,-0.486 c -0.114,-0.201 -0.28,-0.366 -0.48,-0.48 l -0.517,-0.293 c -1.13,-0.641 -2.386,0.616 -1.743,1.746 l 5.324,9.346 c 0.108,0.19 0.166,0.405 0.168,0.624 l 0.221,29.406 c 0.003,0.457 -0.238,0.881 -0.632,1.113 l -0.003,0.002 c -1.136,0.667 -2.418,-0.612 -1.752,-1.749 l 0.461,-0.788 c 0.116,-0.199 0.177,-0.426 0.175,-0.656 l -0.005,-0.594 c -0.01,-1.3 -1.727,-1.758 -2.383,-0.636 l -5.61,9.587 c -0.111,0.189 -0.268,0.347 -0.457,0.457 l -25.352,14.893 c -0.394,0.232 -0.882,0.235 -1.28,0.01 l -0.003,-0.003 c -1.147,-0.65 -0.68,-2.399 0.638,-2.392 l 0.568,0.004 c 0.231,10e-4 0.457,-0.06 0.656,-0.177 l 0.512,-0.301 c 1.121,-0.658 0.66,-2.375 -0.64,-2.382 l -10.764,-0.062 c -0.219,-0.002 -0.434,-0.059 -0.624,-0.167 l -25.575,-14.51 c -0.397,-0.225 -0.644,-0.646 -0.648,-1.103 v -0.006 c -0.009,-1.318 1.739,-1.788 2.391,-0.642 l 0.613,1.076 c 0.114,0.2 0.28,0.366 0.481,0.479 l 0.515,0.293 c 1.13,0.641 2.386,-0.617 1.743,-1.746 l -5.658,-9.931 c -0.108,-0.19 -0.166,-0.405 -0.168,-0.624 l -0.22,-29.406 c -0.003,-0.457 0.237,-0.881 0.631,-1.112 l 0.005,-0.003 c 1.136,-0.667 2.417,0.612 1.752,1.749 l -0.681,1.164 c -0.116,0.198 -0.176,0.425 -0.175,0.655 l 0.005,0.593 c 0.009,1.3 1.727,1.759 2.383,0.637 l 5.828,-9.961 c 0.111,-0.189 0.268,-0.346 0.456,-0.457 l 25.354,-14.893 c 0.394,-0.232 0.881,-0.235 1.279,-0.01 l 0.003,0.002 c 1.146,0.65 0.679,2.4 -0.639,2.392 l -1.138,-0.007 c -0.23,-10e-4 -0.456,0.06 -0.654,0.176 l -0.513,0.3 c -1.123,0.657 -0.662,2.376 0.639,2.383 l 11.333,0.066 c 0.219,0.001 0.434,0.059 0.624,0.167 z m -15.728,-12.214 -0.015,-0.008 c -1.146,-0.651 -0.679,-2.4 0.639,-2.392 h 0.01 c 0.457,0.002 0.879,0.249 1.105,0.646 l 0.005,0.009 c 0.643,1.129 -0.613,2.387 -1.744,1.745 m 89.76,44.284 h 21.8 v 7.886 h -21.8 z m 144.309,0 h 21.8 v 7.886 h -21.8 z M 83.672,81.654 V -37.908 H -274.344 -382.257 V 81.654 Z M -94.185,-1.562 c 0.23,-0.58 0.345,-1.212 0.345,-1.896 v -0.045 c 0,-0.699 -0.115,-1.331 -0.345,-1.896 -0.231,-0.565 -0.551,-1.056 -0.959,-1.472 -0.41,-0.417 -0.904,-0.736 -1.484,-0.959 -0.58,-0.223 -1.22,-0.335 -1.918,-0.335 h -2.655 v 9.414 h 2.655 c 0.698,0 1.338,-0.115 1.918,-0.346 0.58,-0.23 1.074,-0.554 1.484,-0.97 0.408,-0.417 0.728,-0.915 0.959,-1.495" /></g><g
           transform="translate(170.9306,209.8199)"
           id="g30"><path
             id="path32"
             style="fill:#5a5d6c;fill-opacity:1;fill-rule:nonzero;stroke:none"
             d="M 0,0 H -0.031 L -2.848,-0.003 C -4.667,-0.01 -4.689,-0.013 -4.954,-0.047 -6.971,-0.303 -8.82,-2.458 -8.835,-4.569 l -0.011,-1.456 c -0.006,-0.859 0.221,-1.693 0.65,-2.417 -0.825,-0.356 -1.394,-0.744 -1.908,-1.121 -0.065,-0.048 -0.132,-0.097 -0.202,-0.146 -1.076,-0.753 -2.026,-1.645 -2.818,-2.649 l -0.098,-0.12 -0.075,-0.094 -0.069,-0.098 -0.125,-0.178 -0.021,-0.029 -0.02,-0.03 -0.145,-0.213 -0.102,-0.151 c -0.155,-0.229 -0.226,-0.355 -0.297,-0.48 l -0.01,-0.016 -0.015,-0.027 -0.045,-0.079 -0.098,-0.17 -0.02,-0.034 -0.036,-0.065 c -0.024,-0.044 -0.047,-0.088 -0.069,-0.132 l -10e-4,10e-4 -0.041,-0.075 -0.037,-0.077 -0.058,-0.121 -0.094,-0.198 -0.016,-0.035 -0.016,-0.035 -0.02,-0.043 c -0.085,-0.179 -0.166,-0.361 -0.234,-0.546 l -0.021,-0.055 c -0.104,-0.269 -0.231,-0.6 -0.342,-0.997 -0.456,-1.526 -0.602,-3.13 -0.433,-4.767 0.204,-1.813 0.768,-3.477 1.681,-4.979 0.108,-0.181 0.246,-0.385 0.381,-0.58 l 0.05,-0.071 0.052,-0.074 c 0.082,-0.116 0.175,-0.243 0.237,-0.322 l 0.016,-0.021 0.017,-0.021 0.111,-0.138 0.077,-0.095 c 0.128,-0.173 0.272,-0.34 0.431,-0.496 l 0.356,-0.374 0.063,-0.065 0.065,-0.062 c 0.731,-0.696 1.462,-1.259 2.235,-1.722 0.649,-0.397 1.344,-0.743 2.076,-1.035 l -0.014,-1.964 c -0.751,-0.817 -1.213,-1.908 -1.221,-3.106 l -0.011,-1.455 c -0.009,-1.152 0.402,-2.259 1.157,-3.115 0.848,-0.962 2.063,-1.519 3.334,-1.528 l 6.738,-0.05 c 2.51,0 4.541,2.053 4.559,4.577 l 0.011,1.461 c 0.01,1.352 -0.56,2.577 -1.471,3.429 l 0.013,1.763 c 1.098,0.325 2.231,0.724 3.433,1.209 2.396,0.965 4.594,2.077 6.719,3.153 l 0.323,0.163 c 1.677,0.849 3.221,1.619 4.689,2.256 l -0.066,-8.937 c -0.766,-0.82 -1.238,-1.922 -1.247,-3.133 l -0.011,-1.456 c -0.019,-2.541 1.996,-4.624 4.491,-4.643 l 6.739,-0.05 c 2.509,0 4.54,2.053 4.558,4.577 l 0.011,1.461 c 0.007,0.941 -0.266,1.82 -0.741,2.555 1.359,0.612 3.243,1.617 4.842,3.644 0.446,0.564 0.848,1.176 1.195,1.815 l 0.02,0.038 0.02,0.039 0.064,0.123 c 0.12,0.227 0.282,0.535 0.432,0.917 l 0.074,0.181 0.067,0.162 0.049,0.122 0.041,0.102 0.044,0.128 0.037,0.109 0.011,0.033 0.01,0.033 0.058,0.184 0.044,0.139 0.022,0.072 c 0.027,0.084 0.053,0.165 0.091,0.321 l 0.071,0.293 0.045,0.187 0.011,0.042 0.009,0.043 0.051,0.236 0.025,0.116 0.018,0.117 0.036,0.235 0.014,0.085 0.009,0.086 0.069,0.648 0.015,0.141 0.01,0.092 0.005,0.093 c 0.04,0.689 0.029,1.312 -0.033,1.899 -0.032,0.39 -0.092,0.73 -0.137,0.984 l -0.027,0.155 -0.02,0.119 -0.031,0.137 -0.033,0.139 c -0.066,0.284 -0.148,0.634 -0.281,1.031 -0.262,0.831 -0.629,1.652 -1.092,2.439 -0.448,0.782 -1.04,1.558 -1.738,2.273 -0.369,0.385 -0.748,0.706 -1.102,0.995 l -0.053,0.043 -0.08,0.062 -0.069,0.052 -0.03,0.023 -0.03,0.022 -0.112,0.081 -0.186,0.134 -0.054,0.038 -0.056,0.037 -0.244,0.163 -0.164,0.106 -0.061,0.04 -0.064,0.037 -0.11,0.066 c -0.698,0.418 -1.449,0.776 -2.246,1.069 l 0.012,1.662 c 0.912,0.837 1.487,2.042 1.497,3.38 l 0.01,1.46 c 0.019,2.523 -1.981,4.606 -4.457,4.643 l -2.465,0.037 h -0.031 -0.03 L 25.333,-0.211 23.905,-0.2 c -2.51,0 -4.541,-2.053 -4.559,-4.577 l -0.011,-1.455 c -0.008,-1.152 0.403,-2.259 1.157,-3.115 0.015,-0.016 0.029,-0.032 0.044,-0.049 l -0.015,-2.054 c -1.066,-0.302 -2.156,-0.67 -3.263,-1.103 -2.576,-1.005 -4.997,-2.235 -7.133,-3.32 l -0.094,-0.048 c -1.622,-0.826 -3.175,-1.617 -4.674,-2.288 l 0.064,8.665 c 0.926,0.838 1.511,2.053 1.521,3.403 l 0.011,1.461 c 0.019,2.523 -1.981,4.606 -4.457,4.643 L 0.031,0 Z m 1.464,-30.243 -0.04,-5.364 0.781,-0.011 c 0.396,-0.006 0.713,-0.369 0.71,-0.811 L 2.904,-37.89 c -0.003,-0.444 -0.326,-0.801 -0.722,-0.801 -0.002,0 -0.003,0 -0.005,0 l -6.738,0.05 c -0.398,0.003 -0.718,0.366 -0.715,0.811 l 0.011,1.455 c 0.003,0.444 0.326,0.801 0.722,0.801 0.001,0 0.003,0 0.005,0 l 0.477,-0.004 0.038,5.16 c 0.068,-0.009 0.135,-0.021 0.202,-0.029 0.626,-0.078 1.26,-0.125 1.897,-0.125 0.037,0 0.075,0 0.112,0 0.025,0 0.051,-0.001 0.076,-0.001 0.144,0 0.287,0.009 0.431,0.012 l 0.255,0.008 0.274,0.019 0.277,0.02 c 0.09,0.008 0.195,0.015 0.255,0.023 l 0.422,0.047 0.111,0.013 0.059,0.009 0.119,0.018 0.239,0.037 0.478,0.074 c 0.094,0.014 0.187,0.033 0.28,0.05 m 26.807,9.222 h 0.017 l 0.041,-10e-4 0.081,-0.002 c 0.054,-0.002 0.108,-0.003 0.162,-0.006 0.214,-0.009 0.423,-0.026 0.627,-0.047 0.186,-0.021 0.365,-0.047 0.54,-0.078 l -0.108,-14.66 0.755,-0.011 c 0.396,-0.006 0.713,-0.368 0.71,-0.811 l -0.011,-1.461 c -0.003,-0.443 -0.326,-0.8 -0.722,-0.8 -0.001,0 -0.003,0 -0.004,0 l -6.739,0.049 c -0.398,0.003 -0.718,0.366 -0.715,0.811 l 0.011,1.456 c 0.003,0.443 0.326,0.8 0.722,0.8 0.002,0 0.003,0 0.005,0 l 0.503,-0.003 0.105,14.338 c 0.75,0.164 1.49,0.283 2.217,0.349 l 0.18,0.02 0.164,0.009 0.325,0.021 0.162,0.011 c 0.028,0.002 0.051,0.005 0.084,0.006 l 0.104,10e-4 0.418,0.005 0.366,0.004 M -0.026,-3.804 2.439,-3.841 c 0.396,-0.006 0.713,-0.368 0.71,-0.811 L 3.138,-6.113 c -0.003,-0.443 -0.326,-0.8 -0.722,-0.8 -10e-4,0 -0.003,0 -0.005,0 L 1.636,-6.908 1.513,-23.576 c 0.306,0.07 0.614,0.145 0.923,0.234 1.013,0.281 2.039,0.643 3.075,1.063 2.072,0.839 4.171,1.911 6.337,3.015 2.166,1.1 4.406,2.236 6.795,3.168 1.802,0.704 3.709,1.285 5.66,1.604 l 0.054,7.417 -0.503,0.004 c -0.398,0.003 -0.718,0.366 -0.715,0.811 l 0.011,1.455 c 0.003,0.443 0.326,0.801 0.722,0.801 h 0.005 l 1.46,-0.011 2.818,0.003 2.465,-0.037 c 0.396,-0.006 0.713,-0.368 0.71,-0.811 l -0.011,-1.46 c -0.003,-0.444 -0.326,-0.801 -0.722,-0.801 h -0.004 l -0.751,0.006 -0.053,-7.236 c 0.104,-0.014 0.208,-0.027 0.311,-0.043 1.319,-0.211 2.638,-0.628 3.82,-1.337 l 0.11,-0.066 0.124,-0.079 0.244,-0.163 0.165,-0.118 0.075,-0.054 0.038,-0.028 0.069,-0.052 0.025,-0.021 c 0.271,-0.22 0.537,-0.444 0.77,-0.689 0.475,-0.484 0.879,-1.008 1.195,-1.558 0.322,-0.548 0.576,-1.115 0.754,-1.692 0.098,-0.282 0.159,-0.572 0.226,-0.856 0.002,-0.007 0.003,-0.013 0.005,-0.02 0.048,-0.288 0.107,-0.573 0.126,-0.86 0.051,-0.445 0.05,-0.889 0.024,-1.328 -0.023,-0.217 -0.061,-0.571 -0.084,-0.788 l -0.036,-0.235 -0.051,-0.235 c -0.038,-0.157 -0.076,-0.313 -0.113,-0.468 -0.011,-0.045 -0.018,-0.061 -0.025,-0.086 l -0.023,-0.072 -0.045,-0.143 -0.045,-0.142 -0.011,-0.036 -0.036,-0.108 -0.01,-0.024 -0.038,-0.095 c -0.051,-0.126 -0.103,-0.251 -0.154,-0.375 -0.096,-0.252 -0.228,-0.483 -0.348,-0.716 -0.249,-0.46 -0.532,-0.885 -0.837,-1.272 -1.224,-1.552 -2.708,-2.231 -4.002,-2.787 -0.016,-0.006 -0.229,-0.077 -0.445,-0.148 -0.038,-0.013 -0.075,-0.019 -0.112,-0.019 -0.19,0 -0.357,0.155 -0.355,0.359 l 0.037,5.057 c 0.002,0.199 0.164,0.353 0.355,0.353 0.023,0 0.047,-0.002 0.071,-0.007 0.195,-0.039 0.402,-0.082 0.484,-0.082 0.018,0 0.03,0.002 0.034,0.007 0.146,0.182 0.278,0.38 0.392,0.59 0.051,0.107 0.121,0.21 0.159,0.325 l 0.071,0.168 0.017,0.039 0.037,0.118 0.046,0.143 0.022,0.072 c 0.007,0.022 0.018,0.054 0.017,0.058 0.005,0.042 0.012,0.083 0.022,0.124 l 0.016,0.062 0.013,0.095 0.029,0.191 c 0.016,0.259 0.038,0.529 0.002,0.805 -0.004,0.139 -0.041,0.276 -0.058,0.417 -0.038,0.136 -0.06,0.279 -0.111,0.414 -0.081,0.276 -0.203,0.543 -0.349,0.793 -0.141,0.255 -0.324,0.483 -0.523,0.688 -0.096,0.107 -0.209,0.194 -0.316,0.288 l -0.009,0.008 -0.006,0.004 -0.075,0.055 -0.075,0.055 c -0.023,0.016 -0.058,0.043 -0.063,0.045 l -0.07,0.043 -0.033,0.022 -0.052,0.031 c -0.546,0.331 -1.258,0.578 -2.071,0.71 -0.204,0.032 -0.412,0.059 -0.626,0.077 -0.053,0.006 -0.107,0.01 -0.161,0.013 l -0.081,0.005 -0.041,0.003 -0.017,0.001 -0.366,0.009 -0.418,0.01 -0.104,0.003 c -0.002,0 -0.003,0 -0.005,0 -0.03,0 -0.052,-0.002 -0.079,-0.003 l -0.163,-0.007 -0.325,-0.011 -0.164,-0.004 -0.181,-0.016 c -1.932,-0.124 -3.966,-0.667 -6.034,-1.469 -2.07,-0.8 -4.171,-1.85 -6.329,-2.942 -2.158,-1.091 -4.384,-2.23 -6.746,-3.183 -1.181,-0.475 -2.395,-0.903 -3.641,-1.246 -0.621,-0.175 -1.253,-0.321 -1.887,-0.447 -0.32,-0.056 -0.635,-0.123 -0.956,-0.168 l -0.48,-0.065 -0.24,-0.033 -0.119,-0.016 -0.06,-0.007 -0.111,-0.011 -0.423,-0.038 c -0.06,-0.006 -0.166,-0.011 -0.256,-0.016 l -0.277,-0.013 -0.275,-0.01 h -0.255 c -0.035,10e-4 -0.07,10e-4 -0.105,10e-4 -0.044,0 -0.088,0 -0.132,0 -0.09,0 -0.18,0.001 -0.27,0.006 -0.676,0.019 -1.345,0.1 -2.003,0.217 -1.315,0.244 -2.596,0.697 -3.736,1.394 -0.572,0.343 -1.094,0.764 -1.57,1.217 -0.114,0.119 -0.227,0.237 -0.34,0.355 l -0.084,0.089 c 0.007,-0.008 0.01,-0.011 0.01,-0.011 -0.001,0 -0.086,0.101 -0.086,0.101 0,0 0,-0.001 10e-4,-0.001 l -0.042,0.052 -0.112,0.139 -0.111,0.137 c -0.041,0.052 -0.105,0.144 -0.155,0.215 -0.102,0.148 -0.218,0.31 -0.301,0.449 -0.664,1.091 -1.026,2.26 -1.154,3.406 -0.119,1.147 -0.014,2.277 0.304,3.324 0.071,0.262 0.172,0.517 0.268,0.768 0.045,0.126 0.109,0.247 0.164,0.369 l 0.086,0.181 0.043,0.09 0.011,0.023 c 0.005,0.009 0.006,0.011 0.006,0.011 0,0 -0.005,-0.007 -0.005,-0.007 0,0 0.009,0.017 0.057,0.105 l 0.018,0.031 c 0.048,0.083 0.095,0.165 0.142,0.247 0.051,0.086 0.078,0.144 0.174,0.286 0.083,0.123 0.165,0.244 0.247,0.364 l 0.125,0.178 0.118,0.147 c 0.621,0.786 1.323,1.406 2.019,1.892 0.608,0.427 1.012,0.829 2.338,1.204 0.032,0.009 0.064,0.013 0.096,0.013 0.19,0 0.355,-0.156 0.354,-0.358 l -0.042,-5.589 c -0.001,-0.203 -0.167,-0.354 -0.354,-0.354 -0.041,0 -0.083,0.008 -0.125,0.023 -0.258,0.096 -0.55,0.209 -0.682,0.24 -0.022,-0.037 -0.048,-0.084 -0.07,-0.122 -0.04,-0.07 -0.081,-0.141 -0.121,-0.211 l -0.018,-0.04 -0.036,-0.08 c -0.023,-0.054 -0.056,-0.104 -0.073,-0.162 -0.039,-0.114 -0.09,-0.225 -0.119,-0.348 -0.147,-0.477 -0.196,-1.026 -0.139,-1.588 0.039,-0.278 0.091,-0.562 0.185,-0.836 0.097,-0.271 0.213,-0.54 0.366,-0.785 0.035,-0.061 0.06,-0.085 0.086,-0.132 0.018,-0.025 0.015,-0.033 0.047,-0.074 l 0.112,-0.138 0.112,-0.138 0.001,-0.001 0.035,-0.036 0.148,-0.155 c 0.007,-0.006 0.013,-0.013 0.02,-0.019 0.225,-0.205 0.466,-0.409 0.756,-0.579 0.369,-0.224 0.801,-0.409 1.27,-0.555 l 0.124,16.776 -0.478,0.003 c -0.398,0.003 -0.718,0.366 -0.715,0.811 l 0.011,1.456 c 0.002,0.344 0.532,0.773 0.555,0.776 0.057,0.007 1.632,0.013 1.632,0.013 l 2.818,0.004" /></g><g
           id="g34"><g
             id="g36" /><g
             id="g94"><g
               style="opacity:0.39999402"
               id="g92"
               clip-path="url(#clipPath40)"><g
                 id="g90"><g
                   id="g88"
                   clip-path="url(#clipPath44)"><g
                     id="g86"><g
                       id="g78" /><g
                       id="g84"
                       mask="url(#mask58)"><g
                         id="g82"><path
                           id="path80"
                           style="fill:url(#radialGradient76);stroke:none"
                           d="m 208.801,186.505 c -0.023,-0.217 -0.061,-0.571 -0.084,-0.788 l -0.036,-0.235 -0.052,-0.235 c -0.038,-0.157 -0.075,-0.313 -0.113,-0.468 -0.011,-0.045 -0.017,-0.061 -0.025,-0.087 l -0.022,-0.071 -0.045,-0.143 -0.045,-0.142 -0.011,-0.036 -0.037,-0.108 -0.009,-0.024 -0.038,-0.095 c -0.052,-0.126 -0.103,-0.251 -0.154,-0.375 -0.096,-0.252 -0.229,-0.483 -0.348,-0.716 -0.249,-0.46 -0.532,-0.885 -0.837,-1.272 -1.225,-1.552 -2.708,-2.231 -4.003,-2.787 -0.016,-0.006 -0.228,-0.077 -0.444,-0.148 -0.038,-0.013 -0.076,-0.018 -0.113,-0.018 -0.189,0 -0.356,0.154 -0.355,0.358 l 0.038,5.057 c 10e-4,0.199 0.164,0.353 0.354,0.353 0.024,0 0.047,-0.002 0.071,-0.007 0.196,-0.039 0.403,-0.082 0.484,-0.082 0.019,0 0.031,0.002 0.035,0.007 0.146,0.182 0.277,0.38 0.392,0.59 0.051,0.107 0.121,0.21 0.158,0.325 l 0.071,0.168 0.018,0.039 0.037,0.118 0.045,0.143 0.023,0.072 c 0.007,0.022 0.018,0.054 0.016,0.058 0.006,0.042 0.013,0.083 0.022,0.124 l 0.017,0.062 0.012,0.095 0.03,0.191 c 0.016,0.259 0.038,0.529 0.002,0.805 -0.004,0.139 -0.041,0.276 -0.059,0.417 -0.037,0.136 -0.059,0.279 -0.11,0.414 -0.081,0.276 -0.203,0.543 -0.35,0.793 -0.141,0.255 -0.323,0.482 -0.522,0.688 -0.097,0.107 -0.209,0.194 -0.317,0.288 l -0.009,0.008 -0.006,0.004 -0.075,0.055 -0.075,0.055 c -0.022,0.016 -0.057,0.043 -0.063,0.045 l -0.069,0.043 -0.034,0.022 -0.052,0.031 c -0.546,0.331 -1.258,0.579 -2.071,0.71 -0.203,0.032 -0.412,0.059 -0.626,0.077 -0.052,0.006 -0.106,0.01 -0.161,0.013 l -0.081,0.005 -0.04,0.003 -0.018,0.001 -0.366,0.009 -0.417,0.01 -0.105,0.003 h -0.003 c -0.031,0 -0.053,-0.002 -0.081,-0.003 l -0.162,-0.007 -0.326,-0.011 -0.163,-0.004 -0.181,-0.016 c -1.933,-0.124 -3.967,-0.667 -6.034,-1.469 -2.07,-0.8 -4.172,-1.85 -6.329,-2.942 -2.158,-1.091 -4.384,-2.231 -6.747,-3.183 -1.18,-0.475 -2.394,-0.903 -3.64,-1.246 -0.621,-0.175 -1.254,-0.321 -1.888,-0.447 -0.319,-0.056 -0.634,-0.123 -0.955,-0.168 l -0.48,-0.065 -0.24,-0.033 -0.12,-0.016 -0.059,-0.007 -0.111,-0.011 -0.423,-0.038 c -0.061,-0.006 -0.166,-0.011 -0.256,-0.016 l -0.278,-0.012 -0.275,-0.011 h -0.254 c -0.035,0.001 -0.07,0.001 -0.105,0.001 -0.044,0 -0.087,0 -0.131,0 -0.091,0 -0.181,10e-4 -0.272,0.006 -0.675,0.019 -1.344,0.1 -2.003,0.217 -1.314,0.244 -2.596,0.697 -3.735,1.394 -0.573,0.343 -1.095,0.764 -1.57,1.217 -0.114,0.118 -0.228,0.237 -0.34,0.355 l -0.084,0.089 c 0.007,-0.008 0.009,-0.011 0.009,-0.011 0,0 -0.086,0.101 -0.085,0.101 0,0 0,-0.001 0,-0.001 l -0.042,0.052 -0.111,0.139 -0.111,0.137 c -0.041,0.052 -0.105,0.144 -0.155,0.215 -0.102,0.148 -0.219,0.31 -0.301,0.449 -0.665,1.091 -1.026,2.26 -1.155,3.406 -0.118,1.147 -0.014,2.277 0.304,3.324 0.071,0.263 0.173,0.517 0.269,0.768 0.045,0.126 0.109,0.247 0.164,0.369 l 0.085,0.181 0.043,0.09 0.011,0.023 c 0.005,0.008 0.007,0.011 0.006,0.011 l -0.004,-0.007 c -0.001,0 0.009,0.017 0.057,0.105 l 0.018,0.031 c 0.047,0.083 0.095,0.165 0.142,0.247 0.05,0.086 0.078,0.144 0.174,0.286 0.083,0.122 0.165,0.244 0.247,0.364 l 0.125,0.178 0.118,0.147 c 0.62,0.786 1.323,1.406 2.018,1.892 0.609,0.427 1.012,0.829 2.338,1.204 0.033,0.009 0.065,0.013 0.096,0.013 0.19,0 0.356,-0.156 0.354,-0.359 l -0.041,-5.588 c -10e-4,-0.203 -0.167,-0.354 -0.355,-0.354 -0.041,0 -0.082,0.007 -0.124,0.023 -0.259,0.096 -0.55,0.209 -0.683,0.24 -0.022,-0.038 -0.047,-0.084 -0.07,-0.123 -0.04,-0.069 -0.08,-0.14 -0.12,-0.211 l -0.018,-0.039 -0.037,-0.08 c -0.023,-0.054 -0.055,-0.104 -0.072,-0.162 -0.04,-0.114 -0.091,-0.225 -0.119,-0.348 -0.148,-0.477 -0.196,-1.026 -0.139,-1.587 0.039,-0.279 0.091,-0.563 0.185,-0.837 0.097,-0.271 0.212,-0.54 0.365,-0.785 0.035,-0.061 0.061,-0.085 0.087,-0.132 0.018,-0.025 0.015,-0.033 0.047,-0.074 l 0.111,-0.138 0.112,-0.138 0.001,-0.001 0.036,-0.036 0.148,-0.155 c 0.006,-0.006 0.013,-0.013 0.02,-0.019 0.225,-0.206 0.466,-0.409 0.756,-0.579 0.369,-0.224 0.8,-0.409 1.27,-0.555 l 0.123,16.776 -0.477,0.003 c -0.398,0.003 -0.719,0.366 -0.715,0.811 l 0.01,1.456 c 0.003,0.344 0.532,0.773 0.555,0.776 0.057,0.007 1.633,0.013 1.633,0.013 l 2.817,0.004 2.466,-0.037 c 0.396,-0.006 0.713,-0.368 0.709,-0.811 l -0.01,-1.461 c -0.003,-0.443 -0.326,-0.8 -0.722,-0.8 h -0.005 l -0.776,0.005 -0.122,-16.668 c 0.306,0.07 0.613,0.145 0.923,0.233 1.012,0.282 2.039,0.644 3.074,1.064 2.073,0.839 4.172,1.911 6.337,3.014 2.167,1.101 4.406,2.237 6.795,3.169 1.802,0.704 3.71,1.285 5.66,1.604 l 0.055,7.417 -0.503,0.004 c -0.398,0.003 -0.718,0.366 -0.715,0.811 l 0.011,1.455 c 0.003,0.443 0.326,0.801 0.722,0.801 h 0.004 l 1.461,-0.011 2.818,0.003 2.465,-0.037 c 0.396,-0.006 0.713,-0.368 0.71,-0.811 l -0.011,-1.461 c -0.003,-0.443 -0.326,-0.8 -0.722,-0.8 h -0.005 l -0.75,0.005 -0.053,-7.235 c 0.103,-0.014 0.207,-0.027 0.311,-0.043 1.319,-0.211 2.638,-0.628 3.819,-1.337 l 0.111,-0.066 0.124,-0.08 0.244,-0.162 0.165,-0.118 0.075,-0.054 0.037,-0.028 0.069,-0.052 0.026,-0.021 c 0.271,-0.221 0.536,-0.444 0.77,-0.689 0.474,-0.484 0.879,-1.008 1.194,-1.558 0.323,-0.548 0.577,-1.115 0.754,-1.692 0.099,-0.282 0.16,-0.572 0.227,-0.856 0.002,-0.007 0.003,-0.013 0.004,-0.02 0.049,-0.289 0.108,-0.572 0.127,-0.86 0.051,-0.445 0.049,-0.89 0.024,-1.328 m -6.785,-14.783 c -0.003,-0.443 -0.326,-0.8 -0.722,-0.8 h -0.005 l -6.738,0.049 c -0.398,0.003 -0.718,0.366 -0.715,0.811 l 0.011,1.456 c 0.003,0.443 0.326,0.8 0.722,0.8 h 0.004 l 0.503,-0.003 0.106,14.338 c 0.749,0.164 1.489,0.283 2.217,0.349 l 0.18,0.02 0.163,0.009 0.325,0.021 0.163,0.011 c 0.028,0.002 0.051,0.005 0.083,0.006 l 0.105,0.001 0.417,0.005 0.367,0.004 h 0.017 l 0.04,-0.001 0.082,-0.003 c 0.054,-10e-4 0.108,-0.002 0.161,-0.005 0.215,-0.009 0.424,-0.026 0.628,-0.048 0.185,-0.02 0.365,-0.046 0.54,-0.077 l -0.108,-14.66 0.755,-0.011 c 0.396,-0.006 0.713,-0.368 0.71,-0.811 z m -28.181,0.208 c -0.004,-0.444 -0.326,-0.801 -0.722,-0.801 h -0.005 l -6.738,0.05 c -0.399,0.003 -0.719,0.366 -0.715,0.811 l 0.01,1.455 c 0.004,0.444 0.326,0.801 0.722,0.801 h 0.005 l 0.478,-0.004 0.038,5.16 c 0.067,-0.009 0.135,-0.021 0.202,-0.03 0.625,-0.077 1.259,-0.124 1.897,-0.124 0.037,0 0.074,0 0.112,0 0.025,0 0.05,-10e-4 0.076,-10e-4 0.143,0 0.287,0.009 0.431,0.012 l 0.254,0.008 0.275,0.019 0.277,0.02 c 0.09,0.008 0.195,0.015 0.255,0.023 l 0.422,0.047 0.11,0.013 0.06,0.009 0.119,0.018 0.238,0.037 0.478,0.074 c 0.094,0.014 0.187,0.033 0.28,0.051 l -0.039,-5.365 0.78,-0.011 c 0.397,-0.006 0.714,-0.369 0.71,-0.811 z m 38.594,17.238 c -0.009,0.052 -0.019,0.104 -0.027,0.156 l -10e-4,0.005 -0.001,0.006 c -0.013,0.077 -0.029,0.156 -0.047,0.233 l -0.003,0.012 -0.003,0.012 -0.029,0.126 c -0.066,0.284 -0.148,0.634 -0.281,1.031 -0.26,0.826 -0.624,1.64 -1.082,2.423 -0.467,0.81 -1.055,1.581 -1.749,2.291 -0.368,0.385 -0.747,0.705 -1.102,0.994 l -0.019,0.015 -0.055,0.046 -0.057,0.043 -0.069,0.052 -0.03,0.023 -0.031,0.023 -0.038,0.027 -0.075,0.055 -0.011,0.008 -0.011,0.007 -0.164,0.118 -0.054,0.039 -0.055,0.036 -0.244,0.163 -0.021,0.013 -0.02,0.013 -0.124,0.08 -0.061,0.04 -0.062,0.037 -0.103,0.061 c -0.704,0.421 -1.457,0.78 -2.254,1.073 l 0.012,1.658 c 0.909,0.838 1.486,2.045 1.496,3.384 l 0.011,1.461 c 0.018,2.523 -1.981,4.606 -4.457,4.643 l -2.466,0.037 h -0.03 -0.031 l -2.802,-0.003 -1.444,0.011 h -0.014 -0.018 c -2.477,0 -4.508,-2.053 -4.527,-4.576 l -0.01,-1.456 c -0.009,-1.152 0.402,-2.259 1.157,-3.115 0.014,-0.016 0.029,-0.032 0.043,-0.049 l -0.015,-2.054 c -1.066,-0.302 -2.155,-0.67 -3.262,-1.103 -2.576,-1.005 -4.997,-2.235 -7.133,-3.32 l -0.093,-0.047 c -1.623,-0.827 -3.176,-1.618 -4.676,-2.289 l 0.064,8.66 c 0.925,0.839 1.512,2.056 1.522,3.408 l 0.011,1.461 c 0.018,2.523 -1.981,4.606 -4.457,4.643 l -2.466,0.037 h -0.03 -0.031 l -2.818,-0.003 h -0.005 -0.005 c -1.81,-0.008 -1.831,-0.01 -2.098,-0.044 -0.996,-0.127 -1.832,-0.6 -2.632,-1.489 -1.02,-1.133 -1.241,-2.275 -1.247,-3.033 l -0.01,-1.456 c -0.007,-0.883 0.232,-1.711 0.652,-2.416 -0.827,-0.357 -1.396,-0.745 -1.91,-1.122 -0.066,-0.048 -0.132,-0.097 -0.202,-0.146 -1.072,-0.75 -2.018,-1.637 -2.808,-2.635 l -0.109,-0.135 -0.074,-0.093 -0.069,-0.097 -0.125,-0.178 -0.021,-0.03 -0.021,-0.03 -0.176,-0.261 -0.07,-0.103 c -0.158,-0.234 -0.249,-0.395 -0.298,-0.481 l -0.01,-0.017 -0.009,-0.016 -0.006,-0.01 -0.084,-0.147 -0.057,-0.099 -0.02,-0.034 -0.019,-0.034 -0.019,-0.033 c -0.023,-0.043 -0.045,-0.085 -0.066,-0.127 l -0.001,0.001 -0.042,-0.078 -0.038,-0.079 -0.011,-0.023 -0.003,-0.005 -0.003,-0.006 -0.043,-0.09 -0.003,-0.006 -0.003,-0.007 -0.086,-0.181 -0.017,-0.036 -0.016,-0.036 -0.02,-0.042 c -0.056,-0.118 -0.146,-0.31 -0.235,-0.549 l -0.019,-0.05 c -0.104,-0.27 -0.232,-0.602 -0.343,-1 -0.455,-1.525 -0.601,-3.129 -0.432,-4.766 l 0.002,-0.018 0.002,-0.017 c 0.199,-1.777 0.763,-3.439 1.675,-4.941 0.135,-0.227 0.274,-0.426 0.385,-0.586 l 0.048,-0.069 0.013,-0.018 0.012,-0.018 0.024,-0.034 c 0.066,-0.093 0.149,-0.21 0.241,-0.327 l 0.015,-0.02 0.016,-0.02 0.111,-0.137 0.061,-0.076 c 0.132,-0.181 0.279,-0.351 0.439,-0.508 l 0.011,-0.012 0.014,-0.014 0.16,-0.167 0.18,-0.189 0.062,-0.065 0.065,-0.062 c 0.728,-0.692 1.455,-1.253 2.222,-1.715 0.659,-0.401 1.357,-0.749 2.09,-1.041 l -0.014,-1.961 c -0.75,-0.818 -1.213,-1.911 -1.222,-3.11 l -0.011,-1.455 c -0.018,-2.542 1.997,-4.625 4.491,-4.643 l 6.739,-0.05 h 0.014 0.019 c 2.477,0 4.507,2.053 4.526,4.576 l 0.011,1.461 c 0.01,1.352 -0.56,2.578 -1.472,3.43 l 0.013,1.763 c 1.106,0.328 2.236,0.726 3.434,1.208 2.395,0.966 4.593,2.078 6.717,3.153 l 0.325,0.164 c 1.677,0.849 3.221,1.619 4.688,2.256 l -0.066,-8.934 c -0.764,-0.819 -1.237,-1.923 -1.247,-3.136 l -0.01,-1.456 c -0.009,-1.152 0.402,-2.258 1.157,-3.114 0.848,-0.962 2.063,-1.519 3.334,-1.529 l 6.738,-0.05 h 0.014 0.019 c 2.477,0 4.507,2.053 4.526,4.577 l 0.011,1.461 c 0.007,0.941 -0.267,1.82 -0.741,2.555 1.358,0.612 3.243,1.617 4.842,3.644 0.445,0.564 0.847,1.175 1.194,1.815 l 0.021,0.038 0.02,0.039 c 0.021,0.041 0.043,0.083 0.065,0.124 0.119,0.227 0.281,0.535 0.431,0.916 l 0.076,0.185 0.065,0.159 0.004,0.011 0.005,0.012 0.038,0.094 0.006,0.015 0.006,0.014 0.009,0.024 0.035,0.089 0.031,0.091 0.036,0.109 0.012,0.034 0.011,0.035 0.011,0.036 0.046,0.147 0.043,0.138 0.023,0.072 0.005,0.017 v 0 c 0.024,0.074 0.053,0.172 0.086,0.304 l 10e-4,0.007 0.002,0.006 0.061,0.252 0.052,0.215 0.01,0.043 0.01,0.042 0.051,0.236 0.025,0.115 0.018,0.117 0.036,0.235 0.013,0.086 0.009,0.086 0.044,0.409 0.041,0.379 0.01,0.093 0.005,0.094 c 0.04,0.689 0.029,1.311 -0.034,1.898 -0.031,0.39 -0.091,0.729 -0.136,0.983 m 13.153,-2.012 -0.002,-0.005 c -0.653,-1.145 -2.401,-0.675 -2.391,0.643 v 0.01 c 0.009,1.3 1.727,1.758 2.383,0.637 l 0.003,-0.005 c 0.231,-0.395 0.234,-0.883 0.007,-1.28 m -5.329,-9.026 c -0.002,-0.219 -0.06,-0.433 -0.168,-0.623 l -5.324,-9.346 c -0.643,-1.13 0.613,-2.388 1.743,-1.746 l 0.517,0.293 c 0.2,0.113 0.366,0.279 0.48,0.479 l 0.278,0.487 c 0.652,1.145 2.401,0.675 2.39,-0.643 -0.003,-0.457 -0.25,-0.878 -0.648,-1.103 l -25.576,-14.512 c -0.19,-0.108 -0.405,-0.165 -0.624,-0.166 l -11.333,-0.066 c -1.301,-0.007 -1.762,-1.726 -0.639,-2.383 l 0.513,-0.301 c 0.198,-0.116 0.424,-0.176 0.654,-0.175 l 1.138,0.007 c 1.318,0.007 1.785,-1.742 0.639,-2.392 l -0.003,-0.002 c -0.398,-0.226 -0.885,-0.222 -1.279,0.01 l -25.354,14.893 c -0.188,0.11 -0.345,0.268 -0.456,0.457 l -5.828,9.96 c -0.656,1.122 -2.374,0.664 -2.383,-0.636 l -0.005,-0.593 c -0.001,-0.231 0.059,-0.457 0.175,-0.656 l 0.681,-1.163 c 0.665,-1.138 -0.616,-2.417 -1.752,-1.749 l -0.005,0.002 c -0.394,0.232 -0.634,0.656 -0.631,1.113 l 0.22,29.406 c 0.002,0.219 0.06,0.433 0.168,0.624 l 5.658,9.93 c 0.643,1.13 -0.613,2.388 -1.743,1.746 l -0.515,-0.292 c -0.201,-0.114 -0.367,-0.279 -0.481,-0.479 l -0.613,-1.077 c -0.652,-1.145 -2.4,-0.675 -2.391,0.643 v 0.006 c 0.004,0.457 0.251,0.877 0.648,1.103 l 25.575,14.51 c 0.19,0.108 0.405,0.165 0.624,0.166 l 10.764,0.062 c 1.3,0.008 1.761,1.724 0.64,2.383 l -0.512,0.301 c -0.199,0.117 -0.425,0.178 -0.656,0.176 l -0.568,-0.003 c -1.318,-0.008 -1.785,1.742 -0.638,2.392 l 0.003,0.002 c 0.398,0.226 0.886,0.222 1.28,-0.009 l 25.352,-14.893 c 0.189,-0.111 0.346,-0.268 0.457,-0.457 l 5.61,-9.587 c 0.656,-1.122 2.373,-0.664 2.383,0.636 l 0.005,0.594 c 10e-4,0.23 -0.059,0.457 -0.175,0.656 l -0.461,0.787 c -0.666,1.138 0.616,2.417 1.752,1.749 l 0.003,-0.001 c 0.394,-0.232 0.635,-0.656 0.632,-1.113 z m -14.715,-26.162 -0.005,-0.008 c -0.226,-0.398 -0.648,-0.644 -1.105,-0.647 h -0.01 c -1.318,-0.007 -1.785,1.742 -0.639,2.392 l 0.015,0.009 c 1.131,0.641 2.387,-0.616 1.744,-1.746 m -41.612,-0.888 h -0.007 c -0.457,-0.003 -0.881,0.239 -1.112,0.633 l -0.003,0.006 c -0.666,1.138 0.615,2.417 1.752,1.749 l 0.01,-0.006 c 1.121,-0.658 0.66,-2.375 -0.64,-2.382 m -19.188,36.232 c -0.01,-1.3 -1.728,-1.759 -2.384,-0.637 l -0.002,0.003 c -0.231,0.395 -0.234,0.882 -0.007,1.279 l 0.002,0.004 c 0.652,1.145 2.4,0.675 2.391,-0.643 z m 17.655,35.836 0.002,0.005 c 0.227,0.397 0.648,0.643 1.105,0.646 h 0.005 c 1.318,0.007 1.785,-1.742 0.639,-2.392 l -0.008,-0.004 c -1.13,-0.642 -2.386,0.616 -1.743,1.745 m 41.612,0.883 h 0.002 c 0.457,0.003 0.881,-0.238 1.112,-0.633 l 0.001,-0.002 c 0.665,-1.137 -0.616,-2.416 -1.753,-1.749 l -0.003,0.002 c -1.12,0.658 -0.659,2.375 0.641,2.382 m 42.291,-2.994 h 7.886 V 205.94 h 14.59 v 15.097 h 7.887 v -39.432 h -7.887 v 16.449 h -14.59 v -16.449 h -7.886 z m 47.258,-31.546 h 26.138 v -7.887 h -26.138 z m 0,16.392 h 21.8 v -7.886 h -21.8 z m 0,15.21 h 26.307 v -7.887 h -26.307 z m 46.864,0 10.534,-22.195 3.492,6.648 -7.604,15.547 h 8.731 l 10.252,-21.856 10.309,21.856 h 8.731 l -18.082,-39.488 h -1.915 l -6.591,14.477 -6.647,-14.477 h -1.915 l -18.026,39.488 z m 55.964,-50.984 h 6.091 c 1.219,0 2.338,-0.198 3.357,-0.592 1.018,-0.394 1.896,-0.941 2.632,-1.64 0.736,-0.699 1.305,-1.521 1.707,-2.465 0.402,-0.944 0.602,-1.967 0.602,-3.067 V 162.3 c 0,-1.1 -0.2,-2.126 -0.602,-3.078 -0.402,-0.952 -0.971,-1.778 -1.707,-2.476 -0.736,-0.699 -1.614,-1.249 -2.632,-1.651 -1.019,-0.401 -2.138,-0.602 -3.357,-0.602 h -6.091 z m 2.559,50.984 h 7.886 v -31.602 h 14.703 v -7.83 h -22.589 z m 38.922,-31.602 h 26.138 v -7.887 h -26.138 z m 0,16.392 h 21.8 v -7.886 h -21.8 z m 0,15.21 h 26.307 v -7.887 h -26.307 z m 42.92,0 h 29.8 v -7.887 h -10.929 v -31.601 h -7.886 v 31.601 h -10.985 z m 45.568,0 h 29.799 v -7.887 h -10.928 v -31.601 h -7.887 v 31.601 h -10.984 z m 28.286,-61.983 c 0,-0.773 -0.141,-1.46 -0.421,-2.063 -0.281,-0.602 -0.673,-1.108 -1.175,-1.517 -0.502,-0.41 -1.102,-0.722 -1.799,-0.937 -0.696,-0.215 -1.468,-0.323 -2.316,-0.323 -1.19,0 -2.357,0.204 -3.502,0.613 -1.145,0.409 -2.187,1.037 -3.124,1.885 l 2.031,2.431 c 0.714,-0.58 1.446,-1.041 2.197,-1.383 0.751,-0.342 1.572,-0.513 2.465,-0.513 0.714,0 1.267,0.131 1.662,0.391 0.394,0.26 0.591,0.62 0.591,1.081 v 0.045 c 0,0.223 -0.041,0.42 -0.123,0.592 -0.082,0.17 -0.239,0.331 -0.47,0.479 -0.231,0.149 -0.552,0.298 -0.961,0.447 -0.411,0.148 -0.944,0.304 -1.599,0.468 -0.791,0.193 -1.507,0.409 -2.148,0.647 -0.642,0.237 -1.185,0.532 -1.633,0.881 -0.447,0.349 -0.794,0.784 -1.04,1.305 -0.246,0.52 -0.37,1.167 -0.37,1.941 v 0.045 c 0,0.713 0.134,1.356 0.4,1.929 0.265,0.573 0.639,1.067 1.119,1.483 0.48,0.417 1.053,0.737 1.72,0.96 0.667,0.223 1.402,0.335 2.205,0.335 1.145,0 2.197,-0.171 3.156,-0.514 0.96,-0.342 1.841,-0.833 2.644,-1.472 l -1.785,-2.587 c -0.699,0.475 -1.382,0.85 -2.052,1.126 -0.669,0.275 -1.338,0.413 -2.008,0.413 -0.669,0 -1.171,-0.13 -1.505,-0.391 -0.335,-0.26 -0.502,-0.584 -0.502,-0.97 v -0.045 c 0,-0.253 0.048,-0.472 0.145,-0.658 0.097,-0.186 0.272,-0.353 0.525,-0.502 0.254,-0.149 0.601,-0.29 1.041,-0.424 0.44,-0.134 0.995,-0.29 1.666,-0.469 0.79,-0.208 1.495,-0.442 2.114,-0.702 0.619,-0.26 1.141,-0.572 1.566,-0.937 0.425,-0.364 0.745,-0.792 0.961,-1.282 0.216,-0.491 0.325,-1.079 0.325,-1.763 z m -48.699,3.19 c 0,-1.115 -0.208,-2.16 -0.625,-3.134 -0.417,-0.974 -0.992,-1.829 -1.729,-2.565 -0.736,-0.737 -1.614,-1.317 -2.632,-1.74 -1.019,-0.424 -2.131,-0.636 -3.335,-0.636 -1.205,0 -2.313,0.212 -3.324,0.636 -1.012,0.423 -1.885,0.996 -2.622,1.717 -0.736,0.722 -1.308,1.569 -1.717,2.544 -0.409,0.973 -0.614,2.019 -0.614,3.134 v 0.044 c 0,1.116 0.209,2.161 0.625,3.135 0.417,0.974 0.993,1.829 1.729,2.565 0.736,0.737 1.614,1.317 2.633,1.74 1.018,0.424 2.13,0.636 3.335,0.636 1.204,0 2.312,-0.212 3.324,-0.636 1.011,-0.423 1.884,-0.996 2.621,-1.717 0.736,-0.722 1.308,-1.57 1.717,-2.544 0.409,-0.974 0.614,-2.019 0.614,-3.134 z m -54.164,-7.807 h -3.436 v 15.616 h 3.436 z m -93.248,6.804 c 0,-1.19 -0.16,-2.224 -0.48,-3.102 -0.32,-0.877 -0.777,-1.609 -1.372,-2.197 -0.595,-0.588 -1.316,-1.026 -2.164,-1.316 -0.847,-0.29 -1.792,-0.435 -2.833,-0.435 -2.097,0 -3.748,0.581 -4.952,1.74 -1.205,1.16 -1.807,2.893 -1.807,5.198 v 8.924 h 3.435 v -8.835 c 0,-1.279 0.297,-2.242 0.892,-2.888 0.595,-0.647 1.421,-0.971 2.477,-0.971 1.056,0 1.881,0.312 2.476,0.937 0.595,0.625 0.892,1.562 0.892,2.811 v 8.946 h 3.436 z m -50.35,5.644 h -4.752 v -12.448 h -3.435 v 12.448 h -4.752 v 3.168 h 12.939 z m -49.167,-7.831 c 0,-0.773 -0.14,-1.46 -0.421,-2.063 -0.281,-0.602 -0.673,-1.108 -1.175,-1.517 -0.502,-0.41 -1.102,-0.722 -1.798,-0.937 -0.697,-0.215 -1.469,-0.323 -2.317,-0.323 -1.19,0 -2.357,0.204 -3.502,0.613 -1.146,0.409 -2.187,1.037 -3.124,1.885 l 2.031,2.431 c 0.713,-0.58 1.446,-1.041 2.197,-1.383 0.751,-0.342 1.573,-0.513 2.465,-0.513 0.714,0 1.268,0.131 1.662,0.391 0.394,0.26 0.591,0.62 0.591,1.081 v 0.045 c 0,0.223 -0.041,0.42 -0.123,0.592 -0.082,0.17 -0.239,0.331 -0.47,0.479 -0.231,0.149 -0.552,0.298 -0.962,0.447 -0.41,0.148 -0.943,0.304 -1.599,0.468 -0.79,0.193 -1.506,0.409 -2.147,0.647 -0.642,0.237 -1.186,0.532 -1.633,0.881 -0.447,0.349 -0.794,0.784 -1.04,1.305 -0.246,0.52 -0.369,1.167 -0.369,1.941 v 0.045 c 0,0.713 0.133,1.356 0.398,1.929 0.266,0.573 0.639,1.067 1.12,1.483 0.48,0.417 1.053,0.737 1.72,0.96 0.667,0.223 1.402,0.335 2.205,0.335 1.145,0 2.197,-0.171 3.156,-0.514 0.96,-0.342 1.841,-0.833 2.644,-1.472 l -1.784,-2.587 c -0.7,0.475 -1.384,0.85 -2.053,1.126 -0.669,0.275 -1.339,0.413 -2.008,0.413 -0.669,0 -1.171,-0.13 -1.505,-0.391 -0.335,-0.26 -0.502,-0.584 -0.502,-0.97 v -0.045 c 0,-0.253 0.048,-0.472 0.145,-0.658 0.097,-0.186 0.272,-0.353 0.525,-0.502 0.254,-0.149 0.601,-0.29 1.041,-0.424 0.44,-0.134 0.995,-0.29 1.666,-0.469 0.79,-0.208 1.495,-0.442 2.114,-0.702 0.619,-0.26 1.141,-0.572 1.566,-0.937 0.424,-0.364 0.745,-0.792 0.961,-1.282 0.217,-0.491 0.325,-1.079 0.325,-1.763 z M 584.691,127.851 V 247.412 H 118.762 V 127.851 h 107.913 z m -182.218,29.742 h -2.655 v 9.415 h 2.655 c 0.698,0 1.338,-0.116 1.918,-0.347 0.58,-0.23 1.074,-0.553 1.484,-0.969 0.408,-0.417 0.728,-0.915 0.959,-1.495 0.23,-0.581 0.345,-1.213 0.345,-1.897 v -0.044 c 0,-0.699 -0.115,-1.331 -0.345,-1.896 -0.231,-0.565 -0.551,-1.056 -0.959,-1.473 -0.41,-0.416 -0.904,-0.736 -1.484,-0.959 -0.58,-0.223 -1.22,-0.335 -1.918,-0.335 M 502,164.197 c 0.231,-0.595 0.346,-1.227 0.346,-1.897 v -0.044 c 0,-0.669 -0.115,-1.298 -0.346,-1.885 -0.231,-0.588 -0.55,-1.105 -0.959,-1.551 -0.409,-0.446 -0.903,-0.796 -1.484,-1.048 -0.58,-0.253 -1.212,-0.379 -1.895,-0.379 -0.7,0 -1.336,0.13 -1.908,0.39 -0.573,0.26 -1.071,0.613 -1.494,1.059 -0.424,0.447 -0.751,0.968 -0.982,1.563 -0.231,0.594 -0.346,1.226 -0.346,1.895 v 0.045 c 0,0.669 0.115,1.298 0.346,1.885 0.231,0.587 0.55,1.105 0.959,1.551 0.409,0.446 0.9,0.795 1.472,1.048 0.573,0.253 1.209,0.379 1.908,0.379 0.684,0 1.316,-0.13 1.896,-0.39 0.58,-0.261 1.082,-0.613 1.506,-1.059 0.424,-0.447 0.75,-0.967 0.981,-1.562 m 85.556,-39.352 H 115.497 V 250.418 H 587.556 Z M 107.542,116.891 H 595.51 V 258.372 H 107.542 Z" /></g></g></g></g></g></g></g></g><g
           transform="translate(297.0472,359.0675)"
           id="g96"><path
             id="path98"
             style="fill:#5a5d6c;fill-opacity:1;fill-rule:nonzero;stroke:none"
             d="m 0,0 c 1.535,0 3.046,-0.405 4.377,-1.173 l 40.712,-23.513 c 0.747,-0.432 1.676,-0.432 2.423,-0.001 L 90.404,0.068 c 1.294,0.746 2.767,1.151 4.26,1.171 l 49.548,0.651 c 0.864,0.011 1.663,0.486 2.085,1.24 l 22.978,41.042 c 0.769,1.374 1.897,2.517 3.262,3.305 l 40.71,23.493 c 0.748,0.431 1.212,1.236 1.212,2.099 l 0.007,49.528 c 0,1.494 0.386,2.972 1.116,4.275 l 24.205,43.227 c 0.422,0.753 0.41,1.682 -0.031,2.423 l -24.042,40.401 c -0.806,1.354 -1.232,2.902 -1.231,4.478 l 0.008,47.027 c 0,0.863 -0.464,1.668 -1.211,2.099 l -42.904,24.779 c -1.293,0.747 -2.381,1.821 -3.144,3.104 l -25.325,42.562 c -0.441,0.742 -1.236,1.196 -2.114,1.185 l -47.009,-0.618 c -1.583,-0.023 -3.129,0.385 -4.493,1.173 l -40.718,23.519 c -0.748,0.432 -1.677,0.432 -2.424,0 L 2.24,337.468 c -1.293,-0.747 -2.766,-1.152 -4.26,-1.171 l -49.531,-0.651 c -0.863,-0.012 -1.661,-0.486 -2.083,-1.239 l -22.977,-41.025 c -0.77,-1.374 -1.897,-2.516 -3.261,-3.303 l -40.724,-23.503 c -0.748,-0.432 -1.213,-1.236 -1.213,-2.099 l -0.005,-49.539 c -0.001,-1.494 -0.387,-2.972 -1.116,-4.275 l -24.2,-43.215 c -0.422,-0.753 -0.41,-1.681 0.031,-2.423 l 24.041,-40.412 c 0.805,-1.353 1.23,-2.901 1.23,-4.475 l -0.005,-47.025 c 0,-0.863 0.464,-1.668 1.211,-2.099 l 42.896,-24.773 c 1.293,-0.747 2.381,-1.82 3.145,-3.104 L -49.253,0.568 c 0.441,-0.742 1.254,-1.197 2.115,-1.184 l 47.023,0.615 C -0.076,0 -0.038,0 0,0 m 46.301,-31.336 c -1.514,0 -3.027,0.389 -4.377,1.169 L 1.212,-6.654 c -0.378,0.219 -0.806,0.328 -1.244,0.325 l -47.023,-0.616 c -3.134,-0.047 -6.043,1.598 -7.637,4.277 L -80.02,39.901 c -0.211,0.355 -0.512,0.653 -0.871,0.859 l -42.896,24.773 c -2.699,1.559 -4.376,4.464 -4.375,7.58 l 0.005,47.025 c 0,0.436 -0.118,0.865 -0.34,1.24 l -24.04,40.411 c -1.594,2.679 -1.638,6.032 -0.115,8.752 l 24.2,43.214 c 0.202,0.361 0.309,0.771 0.309,1.185 l 0.006,49.538 c 0,3.117 1.677,6.021 4.377,7.579 l 40.724,23.503 c 0.378,0.218 0.69,0.535 0.903,0.915 l 22.978,41.024 c 1.522,2.719 4.404,4.434 7.521,4.475 l 49.531,0.651 c 0.414,0.005 0.822,0.118 1.18,0.324 l 42.909,24.764 c 2.699,1.558 6.053,1.557 8.752,-0.002 l 40.719,-23.519 c 0.378,-0.218 0.808,-0.332 1.244,-0.325 l 47.009,0.618 c 3.136,0.046 6.043,-1.598 7.636,-4.277 l 25.325,-42.562 c 0.211,-0.355 0.512,-0.652 0.87,-0.859 l 42.904,-24.779 c 2.699,-1.559 4.375,-4.464 4.375,-7.581 l -0.008,-47.028 c 0,-0.436 0.117,-0.865 0.34,-1.239 l 24.042,-40.401 c 1.594,-2.679 1.638,-6.032 0.115,-8.752 L 221.104,123.78 c -0.202,-0.361 -0.309,-0.771 -0.31,-1.185 l -0.006,-49.527 c 0,-3.117 -1.678,-6.021 -4.378,-7.58 L 175.7,41.995 c -0.378,-0.218 -0.69,-0.534 -0.903,-0.915 L 151.819,0.038 c -1.524,-2.722 -4.408,-4.437 -7.527,-4.476 L 94.747,-5.089 C 94.334,-5.095 93.926,-5.207 93.568,-5.413 L 50.676,-30.168 c -1.35,-0.779 -2.862,-1.168 -4.375,-1.168 M 85.123,22.02 39.444,21.42 C 34.2,21.351 32.395,14.409 36.94,11.793 l 2.077,-1.195 C 39.82,10.137 40.731,9.9 41.657,9.912 l 4.589,0.06 c 5.311,0.069 7.246,-6.967 2.645,-9.623 L 48.88,0.343 C 47.284,-0.578 45.318,-0.578 43.723,0.344 L -58.908,59.618 c -0.764,0.441 -1.401,1.071 -1.852,1.829 l -23.785,39.974 c -2.68,4.503 -9.589,2.603 -9.589,-2.637 v -2.389 c 0,-0.928 0.251,-1.839 0.725,-2.637 l 2.778,-4.669 c 2.715,-4.565 -2.411,-9.759 -7.011,-7.102 l -0.018,0.01 c -1.595,0.921 -2.578,2.624 -2.577,4.466 l 0.014,118.53 c 0,0.882 0.227,1.749 0.658,2.519 l 22.509,40.194 c 2.561,4.572 -2.539,9.606 -7.077,6.986 l -2.068,-1.194 c -0.803,-0.464 -1.467,-1.136 -1.921,-1.946 l -2.439,-4.357 c -2.595,-4.635 -9.657,-2.792 -9.656,2.52 v 0.023 c 0,1.842 0.983,3.545 2.579,4.466 l 102.65,59.242 c 0.764,0.441 1.628,0.678 2.51,0.69 l 43.382,0.57 c 5.239,0.069 7.049,7.001 2.512,9.622 l -2.076,1.198 c -0.804,0.465 -1.719,0.704 -2.647,0.691 l -2.288,-0.03 c -5.312,-0.07 -7.247,6.967 -2.646,9.623 l 0.016,0.009 c 1.595,0.921 3.561,0.92 5.156,-0.001 l 102.628,-59.273 c 0.764,-0.441 1.401,-1.071 1.852,-1.829 l 22.897,-38.477 c 2.68,-4.502 9.587,-2.603 9.588,2.636 l 0.001,2.394 c 0,0.928 -0.25,1.84 -0.725,2.638 l -1.881,3.161 c -2.717,4.565 2.41,9.759 7.01,7.102 l 0.013,-0.007 c 1.596,-0.922 2.578,-2.624 2.578,-4.466 l -0.018,-118.532 c 0,-0.882 -0.226,-1.749 -0.657,-2.519 L 171.038,90.818 c -2.56,-4.572 2.539,-9.605 7.077,-6.986 l 2.073,1.197 c 0.804,0.464 1.468,1.137 1.922,1.947 l 1.103,1.969 c 2.595,4.635 9.657,2.792 9.656,-2.521 v 0 c -0.001,-1.842 -0.984,-3.544 -2.579,-4.465 L 87.633,22.71 c -0.764,-0.441 -1.628,-0.679 -2.51,-0.69 m 44.766,0.587 -0.041,-10e-4 c -5.312,-0.069 -7.246,6.967 -2.646,9.623 l 0.061,0.035 c 4.538,2.619 9.637,-2.413 7.078,-6.985 l -0.019,-0.034 c -0.9,-1.608 -2.59,-2.614 -4.433,-2.638 m -167.769,0.375 -0.015,0.025 c -2.716,4.565 2.411,9.759 7.011,7.102 l 0.043,-0.024 c 4.537,-2.62 2.728,-9.553 -2.511,-9.622 h -0.028 c -1.842,-0.025 -3.558,0.936 -4.5,2.519 m -83.552,145.478 0.007,0.014 c 2.595,4.635 9.657,2.793 9.657,-2.519 v -0.026 c 0,-5.24 -6.91,-7.14 -9.589,-2.637 l -0.007,0.013 c -0.942,1.583 -0.968,3.548 -0.068,5.155 m 84.204,145.09 0.02,10e-4 c 5.311,0.069 7.246,-6.967 2.645,-9.623 l -0.029,-0.017 c -4.538,-2.619 -9.638,2.414 -7.078,6.986 l 0.009,0.016 c 0.901,1.608 2.59,2.613 4.433,2.637 m 167.76,-0.379 0.004,-0.006 c 2.716,-4.566 -2.411,-9.76 -7.011,-7.103 l -0.012,0.007 c -4.537,2.62 -2.728,9.553 2.512,9.622 h 0.008 c 1.842,0.024 3.556,-0.936 4.499,-2.52 m 83.557,-145.469 -0.012,-0.021 c -2.595,-4.635 -9.657,-2.792 -9.656,2.52 v 0.041 c 0.001,5.24 6.909,7.139 9.588,2.637 l 0.012,-0.02 c 0.942,-1.583 0.968,-3.549 0.068,-5.157 m -9.019,-39.714 22.338,39.892 c 0.9,1.607 0.874,3.573 -0.068,5.156 l -22.187,37.283 c -0.475,0.798 -0.725,1.71 -0.725,2.638 l 0.007,43.399 c 0.001,1.843 -0.982,3.545 -2.577,4.467 l -39.593,22.867 c -0.764,0.441 -1.402,1.071 -1.853,1.829 l -23.37,39.278 c -0.942,1.583 -2.657,2.543 -4.5,2.519 l -43.381,-0.57 c -0.928,-0.012 -1.843,0.227 -2.647,0.691 l -37.577,21.705 c -1.595,0.921 -3.561,0.922 -5.157,10e-4 L 4.182,326.29 c -0.764,-0.441 -1.628,-0.679 -2.51,-0.69 l -45.709,-0.601 c -1.842,-0.024 -3.531,-1.029 -4.432,-2.636 l -21.204,-37.859 c -0.453,-0.81 -1.117,-1.483 -1.921,-1.947 l -37.582,-21.689 c -1.596,-0.921 -2.579,-2.623 -2.579,-4.466 l -0.005,-45.716 c -10e-4,-0.882 -0.227,-1.749 -0.658,-2.519 l -22.333,-39.88 c -0.9,-1.608 -0.874,-3.573 0.068,-5.156 l 22.185,-37.294 c 0.475,-0.798 0.725,-1.709 0.725,-2.637 l -0.005,-43.396 c 0,-1.842 0.983,-3.545 2.578,-4.466 l 39.586,-22.862 c 0.764,-0.441 1.402,-1.07 1.853,-1.828 l 23.374,-39.285 c 0.942,-1.583 2.657,-2.544 4.499,-2.519 L 3.507,9.412 C 4.435,9.424 5.35,9.185 6.154,8.721 l 37.57,-21.699 c 1.595,-0.921 3.561,-0.922 5.157,-10e-4 L 88.463,9.866 c 0.764,0.441 1.628,0.678 2.51,0.69 l 45.373,0.596 0.35,0.005 c 1.844,0.023 3.535,1.028 4.435,2.637 l 21.205,37.875 c 0.453,0.811 1.118,1.483 1.922,1.948 l 37.569,21.68 c 1.596,0.921 2.579,2.623 2.579,4.466 l 0.006,45.706 c 0,0.882 0.227,1.749 0.658,2.519 M 100.93,248.021 100.802,248.02 90.646,247.934 H 85.42 c -10.269,0 -18.624,-8.493 -18.624,-18.933 v -5.279 c 0,-4.67 1.671,-8.95 4.439,-12.255 v -4.993 C 67.818,205.428 64.342,204.2 60.822,202.795 51.403,199.04 42.604,194.488 34.841,190.472 l -0.354,-0.184 c -4.707,-2.441 -9.25,-4.797 -13.65,-6.904 v 26.99 c 3.352,3.426 5.428,8.145 5.428,13.348 v 5.299 c 0,10.36 -8.291,18.853 -18.482,18.932 l -8.946,0.067 -0.128,10e-4 -0.128,-10e-4 -10.22,-0.087 c -6.739,-0.076 -6.828,-0.088 -7.917,-0.234 l -0.055,-0.008 -0.055,-0.007 c -8.396,-1.188 -15.76,-9.919 -15.76,-18.683 v -5.279 c 0,-2.756 0.582,-5.377 1.629,-7.741 -2.087,-1.097 -3.707,-2.238 -5.204,-3.353 -0.226,-0.168 -0.453,-0.338 -0.693,-0.509 -4.035,-2.867 -7.597,-6.257 -10.567,-10.063 l -0.389,-0.492 -0.313,-0.395 -0.288,-0.415 -0.449,-0.648 -0.085,-0.123 -0.083,-0.124 -0.875,-1.312 c -0.555,-0.836 -0.889,-1.414 -1.171,-1.92 l -0.029,-0.053 -0.032,-0.056 -0.009,-0.016 -0.423,-0.748 -0.092,-0.163 -0.074,-0.131 -0.079,-0.14 -0.076,-0.14 c -0.083,-0.155 -0.163,-0.31 -0.241,-0.464 l -0.003,0.002 -0.195,-0.367 -0.176,-0.378 -0.038,-0.082 -0.136,-0.29 -0.015,-0.029 -0.014,-0.03 -0.306,-0.66 -0.072,-0.154 -0.068,-0.155 -0.052,-0.112 c -0.215,-0.462 -0.563,-1.211 -0.908,-2.167 l -0.061,-0.161 c -0.364,-0.968 -0.855,-2.274 -1.275,-3.813 -1.69,-5.822 -2.199,-11.926 -1.511,-18.146 l 0.008,-0.075 0.009,-0.074 c 0.811,-6.76 3.005,-13.076 6.521,-18.774 0.535,-0.879 1.082,-1.653 1.486,-2.224 l 0.173,-0.245 0.063,-0.09 0.065,-0.089 0.098,-0.136 c 0.318,-0.442 0.67,-0.916 0.907,-1.213 l 0.072,-0.092 0.074,-0.091 0.407,-0.496 0.396,-0.484 c 0.398,-0.513 0.825,-1.002 1.279,-1.465 l 0.25,-0.264 0.057,-0.06 0.058,-0.059 0.404,-0.417 0.846,-0.872 0.261,-0.268 0.273,-0.256 c 2.734,-2.563 5.586,-4.731 8.48,-6.444 2.081,-1.248 4.261,-2.354 6.534,-3.315 v -4.79 c -2.713,-3.29 -4.348,-7.527 -4.348,-12.145 v -5.279 c 0,-10.44 8.355,-18.933 18.625,-18.933 H 7.641 c 10.269,0 18.624,8.493 18.624,18.933 v 5.299 c 0,5.185 -2.076,9.902 -5.428,13.331 v 3.836 c 3.571,1.141 7.219,2.48 11.053,4.058 8.752,3.603 16.737,7.718 24.46,11.696 l 1.162,0.599 c 4.854,2.502 9.395,4.818 13.723,6.838 v -28.123 c -2.768,-3.305 -4.439,-7.585 -4.439,-12.255 v -5.279 c 0,-10.44 8.355,-18.933 18.624,-18.933 h 24.442 c 10.27,0 18.625,8.493 18.625,18.933 v 5.299 c 0,2.966 -0.68,5.779 -1.889,8.286 5.37,2.692 11.064,6.428 16.132,12.952 1.677,2.156 3.191,4.492 4.491,6.934 l 0.086,0.161 0.082,0.163 0.22,0.43 c 0.425,0.821 1.056,2.043 1.632,3.538 l 0.331,0.823 0.167,0.416 0.019,0.047 0.018,0.047 0.136,0.345 0.019,0.048 0.019,0.048 0.033,0.087 0.154,0.397 0.132,0.405 0.129,0.395 0.035,0.107 0.034,0.107 0.04,0.129 0.012,0.041 0.013,0.042 0.158,0.516 0.154,0.503 0.081,0.266 0.02,0.065 c 0.086,0.28 0.207,0.691 0.335,1.228 l 0.164,0.704 0.246,1.045 0.042,0.181 0.038,0.182 0.18,0.856 0.103,0.488 0.072,0.494 0.124,0.854 0.054,0.363 0.036,0.365 0.284,2.85 0.039,0.395 0.02,0.396 c 0.131,2.609 0.072,4.973 -0.181,7.213 -0.134,1.505 -0.371,2.789 -0.548,3.748 l -0.099,0.546 c -0.055,0.314 -0.129,0.676 -0.216,1.037 l -0.009,0.04 -0.011,0.041 -0.109,0.453 c -0.244,1.012 -0.573,2.376 -1.099,3.904 -1.013,3.137 -2.418,6.225 -4.181,9.184 -1.808,3.083 -4.072,6.005 -6.732,8.688 -1.419,1.459 -2.853,2.657 -4.196,3.736 l -0.067,0.053 -0.248,0.201 -0.255,0.19 -0.253,0.188 -0.121,0.091 -0.123,0.088 -0.137,0.098 -0.273,0.195 -0.049,0.035 -0.05,0.035 -0.6,0.423 -0.227,0.16 -0.232,0.152 -0.891,0.582 -0.079,0.052 -0.08,0.051 -0.45,0.287 -0.269,0.172 -0.276,0.16 -0.377,0.22 c -2.241,1.318 -4.608,2.467 -7.094,3.444 v 3.547 c 3.299,3.418 5.337,8.098 5.337,13.253 v 5.299 c 0,10.36 -8.292,18.853 -18.484,18.932 l -8.944,0.067 z M 4.827,136.157 v -19.458 l 2.831,-0.021 c 1.438,-0.011 2.597,-1.316 2.597,-2.922 v -5.299 c 0,-1.615 -1.17,-2.923 -2.614,-2.923 h -24.442 c -1.444,0 -2.615,1.308 -2.615,2.923 v 5.279 c 0,1.614 1.171,2.923 2.615,2.923 h 1.732 v 18.717 c 0.245,-0.034 0.49,-0.073 0.735,-0.104 2.158,-0.249 4.343,-0.402 6.541,-0.402 0.249,0 0.498,0.001 0.747,0.006 0.059,-0.001 0.118,-0.002 0.176,-0.002 0.555,0 1.108,0.038 1.664,0.054 l 0.923,0.038 0.995,0.073 1.005,0.083 c 0.326,0.028 0.707,0.058 0.924,0.088 l 1.528,0.182 0.401,0.051 0.216,0.034 0.431,0.069 0.864,0.139 1.732,0.28 c 0.341,0.057 0.677,0.126 1.014,0.192 m 96.986,34.164 0.062,-0.001 0.148,-0.003 0.294,-0.005 c 0.197,-0.003 0.393,-0.006 0.586,-0.017 0.778,-0.026 1.537,-0.082 2.278,-0.155 0.673,-0.068 1.326,-0.158 1.96,-0.265 v -53.176 l 2.738,-0.021 c 1.438,-0.011 2.598,-1.316 2.598,-2.922 v -5.299 c 0,-1.615 -1.171,-2.923 -2.615,-2.923 H 85.42 c -1.444,0 -2.615,1.308 -2.615,2.923 v 5.279 c 0,1.614 1.171,2.923 2.615,2.923 h 1.824 v 52.009 c 2.713,0.615 5.395,1.067 8.032,1.324 l 0.652,0.077 0.593,0.038 1.179,0.084 0.587,0.046 c 0.103,0.007 0.186,0.018 0.304,0.022 l 0.38,0.008 1.513,0.028 1.329,0.026 m -0.875,61.69 8.941,-0.067 c 1.438,-0.012 2.598,-1.317 2.598,-2.923 v -5.299 c 0,-1.614 -1.171,-2.923 -2.615,-2.923 h -2.721 v -26.244 c 0.376,-0.049 0.753,-0.094 1.129,-0.15 4.791,-0.731 9.585,-2.207 13.89,-4.746 l 0.403,-0.235 0.451,-0.287 0.89,-0.583 0.601,-0.422 0.273,-0.196 0.137,-0.098 0.252,-0.188 0.093,-0.075 c 0.988,-0.793 1.958,-1.595 2.81,-2.48 1.735,-1.741 3.216,-3.631 4.376,-5.619 1.183,-1.979 2.121,-4.03 2.78,-6.117 0.364,-1.021 0.592,-2.068 0.845,-3.098 0.006,-0.024 0.011,-0.049 0.015,-0.073 0.184,-1.044 0.405,-2.073 0.482,-3.116 0.198,-1.611 0.204,-3.224 0.124,-4.814 -0.078,-0.788 -0.206,-2.073 -0.284,-2.86 l -0.125,-0.854 -0.18,-0.857 c -0.134,-0.569 -0.266,-1.135 -0.398,-1.699 -0.039,-0.163 -0.061,-0.22 -0.089,-0.314 l -0.08,-0.261 -0.159,-0.52 -0.157,-0.516 -0.04,-0.128 -0.129,-0.395 -0.034,-0.087 -0.136,-0.344 c -0.184,-0.459 -0.367,-0.915 -0.548,-1.367 -0.344,-0.915 -0.816,-1.756 -1.243,-2.604 -0.892,-1.675 -1.906,-3.227 -3.003,-4.636 -4.399,-5.663 -9.763,-8.165 -14.443,-10.216 -0.057,-0.024 -0.826,-0.285 -1.608,-0.55 -0.139,-0.047 -0.28,-0.069 -0.417,-0.069 -0.685,0 -1.287,0.554 -1.287,1.29 v 18.345 c 0,0.725 0.592,1.29 1.287,1.29 0.081,0 0.164,-0.008 0.248,-0.024 0.704,-0.138 1.449,-0.287 1.75,-0.287 0.071,0 0.118,0.008 0.133,0.027 0.525,0.664 0.995,1.386 1.404,2.152 0.184,0.389 0.434,0.764 0.568,1.181 l 0.252,0.614 0.062,0.141 0.132,0.43 0.161,0.519 0.081,0.261 c 0.024,0.081 0.063,0.197 0.058,0.212 0.017,0.151 0.042,0.299 0.076,0.449 l 0.057,0.227 0.043,0.344 0.103,0.692 c 0.05,0.942 0.124,1.922 -0.015,2.923 -0.019,0.503 -0.156,0.999 -0.223,1.508 -0.139,0.494 -0.223,1.011 -0.411,1.498 -0.301,1.001 -0.753,1.964 -1.29,2.868 -0.518,0.922 -1.186,1.742 -1.913,2.481 -0.353,0.387 -0.764,0.699 -1.157,1.037 l -0.032,0.029 -0.021,0.016 -0.274,0.196 -0.274,0.198 c -0.082,0.058 -0.21,0.154 -0.23,0.159 l -0.252,0.154 -0.122,0.082 -0.19,0.108 c -1.99,1.189 -4.579,2.066 -7.531,2.522 -0.739,0.111 -1.496,0.204 -2.272,0.263 -0.192,0.02 -0.388,0.031 -0.585,0.041 l -0.294,0.018 -0.147,0.009 -0.063,0.004 -1.329,0.022 -1.514,0.026 -0.379,0.006 c -0.118,0 -0.201,-0.009 -0.304,-0.012 l -0.589,-0.03 -1.181,-0.049 -0.593,-0.02 -0.655,-0.062 C 87.9,177.337 80.536,175.316 73.06,172.351 65.572,169.393 57.979,165.528 50.183,161.51 42.384,157.494 34.34,153.303 25.798,149.786 c -4.269,-1.757 -8.663,-3.34 -13.171,-4.618 -2.248,-0.65 -4.538,-1.197 -6.835,-1.671 -1.158,-0.213 -2.298,-0.463 -3.46,-0.634 l -1.741,-0.251 -0.868,-0.123 -0.433,-0.061 -0.217,-0.031 -0.403,-0.042 -1.533,-0.147 c -0.219,-0.026 -0.6,-0.045 -0.927,-0.064 l -1.007,-0.055 -0.997,-0.045 -0.923,-0.006 c -0.049,0 -0.097,0 -0.146,0 -0.314,0 -0.626,-0.006 -0.939,-0.006 -0.252,0 -0.504,0.004 -0.756,0.019 -2.449,0.05 -4.879,0.323 -7.27,0.732 -4.776,0.849 -9.434,2.458 -13.588,4.955 -2.084,1.23 -3.989,2.743 -5.726,4.371 -0.417,0.429 -0.831,0.856 -1.243,1.282 l -0.306,0.321 c 0.025,-0.029 0.035,-0.041 0.034,-0.041 -0.002,0 -0.314,0.362 -0.312,0.362 0,0 0,-10e-4 10e-4,-0.002 l -0.154,0.188 -0.408,0.499 -0.406,0.497 c -0.149,0.187 -0.384,0.519 -0.568,0.773 -0.375,0.534 -0.801,1.12 -1.103,1.622 -2.44,3.938 -3.782,8.171 -4.28,12.322 -0.459,4.16 -0.11,8.26 1.015,12.065 0.251,0.954 0.612,1.88 0.954,2.793 0.159,0.459 0.388,0.899 0.583,1.343 l 0.307,0.659 0.154,0.328 0.038,0.082 c 0.017,0.032 0.022,0.042 0.022,0.042 0,0 -0.016,-0.028 -0.017,-0.028 -10e-4,0 0.033,0.064 0.205,0.384 l 0.064,0.113 c 0.17,0.301 0.34,0.601 0.508,0.898 0.181,0.314 0.28,0.525 0.624,1.045 0.298,0.445 0.593,0.888 0.885,1.327 l 0.45,0.648 0.424,0.535 c 2.229,2.866 4.761,5.134 7.271,6.917 2.196,1.566 3.648,3.033 8.448,4.43 0.119,0.034 0.239,0.051 0.356,0.051 0.686,0 1.284,-0.563 1.284,-1.292 v -20.273 c 0,-0.738 -0.603,-1.291 -1.286,-1.291 -0.145,0 -0.294,0.025 -0.442,0.079 -0.941,0.342 -2.001,0.743 -2.482,0.853 -0.08,-0.137 -0.172,-0.306 -0.252,-0.447 -0.143,-0.254 -0.287,-0.511 -0.432,-0.768 l -0.063,-0.145 -0.13,-0.29 c -0.082,-0.197 -0.199,-0.378 -0.259,-0.591 -0.141,-0.413 -0.322,-0.817 -0.423,-1.262 -0.521,-1.736 -0.681,-3.729 -0.46,-5.764 0.147,-1.01 0.344,-2.039 0.693,-3.029 0.358,-0.981 0.785,-1.952 1.347,-2.838 0.128,-0.219 0.22,-0.306 0.317,-0.475 0.064,-0.091 0.055,-0.12 0.171,-0.268 l 0.409,-0.496 0.409,-0.498 0.004,-0.005 0.129,-0.127 0.542,-0.56 c 0.023,-0.024 0.047,-0.047 0.072,-0.07 0.824,-0.738 1.702,-1.469 2.76,-2.078 1.343,-0.804 2.913,-1.462 4.619,-1.98 v 60.85 h -1.732 c -1.444,0 -2.615,1.309 -2.615,2.923 v 5.279 c 0,1.25 1.91,2.819 1.993,2.831 0.206,0.027 5.92,0.092 5.92,0.092 l 10.22,0.087 8.941,-0.067 c 1.438,-0.012 2.597,-1.317 2.597,-2.923 v -5.299 c 0,-1.614 -1.17,-2.923 -2.614,-2.923 H 4.827 v -60.46 c 1.109,0.262 2.222,0.543 3.342,0.871 3.666,1.048 7.38,2.388 11.124,3.939 7.494,3.099 15.079,7.045 22.905,11.104 7.828,4.05 15.92,8.229 24.561,11.674 6.516,2.601 13.421,4.761 20.485,5.968 v 26.904 H 85.42 c -1.444,0 -2.615,1.309 -2.615,2.923 v 5.279 c 0,1.615 1.171,2.923 2.615,2.923 h 5.298 l 10.22,0.087" /></g></g></g></g></svg>