<?xml version="1.0" encoding="utf-8"?>
<!-- Generator: Adobe Illustrator 15.0.0, SVG Export Plug-In . SVG Version: 6.00 Build 0)  -->
<!DOCTYPE svg PUBLIC "-//W3C//DTD SVG 1.1//EN" "http://www.w3.org/Graphics/SVG/1.1/DTD/svg11.dtd">
<svg version="1.1" id="Layer_1" xmlns="http://www.w3.org/2000/svg" xmlns:xlink="http://www.w3.org/1999/xlink" x="0px" y="0px"
	 width="1190.551px" height="841.89px" viewBox="0 0 1190.551 841.89" enable-background="new 0 0 1190.551 841.89"
	 xml:space="preserve">
<path d="M609.818,407.736h14.053c1.898,0,2.529-0.635,2.529-2.532v-6.837c0-1.9-0.631-2.531-2.529-2.531h-26.713
	c-1.897,0-2.528,0.631-2.528,2.531v74.183h-14.559c-2.658,0-2.658,0-2.658-2.66v-71.522c0-1.9-0.632-2.531-2.531-2.531h-7.597
	c-1.896,0-2.528,0.631-2.528,2.531v83.553c0,1.896,0.632,2.529,2.528,2.529h28.97c0.164,0,0.306-0.012,0.45-0.021
	c0.146,0.012,0.289,0.021,0.453,0.021h26.713c1.898,0,2.529-0.633,2.529-2.529v-6.836c0-1.9-0.631-2.535-2.529-2.535h-14.053
	c-2.53,0-2.53,0-2.53-2.529V446.22c0-2.533,0-2.533,2.53-2.533h14.053c1.898,0,2.529-0.631,2.529-2.531v-6.834
	c0-1.898-0.631-2.533-2.529-2.533h-14.053c-2.53,0-2.53,0-2.53-2.533v-18.987C607.288,407.736,607.288,407.736,609.818,407.736z"/>
<path d="M438.68,481.919v-83.55c0-1.899,0.634-2.534,2.532-2.534h7.596c1.896,0,2.531,0.635,2.531,2.534v71.523
	c0,2.658,0,2.658,2.659,2.658h13.923c1.899,0,2.533,0.635,2.533,2.535v6.834c0,1.898-0.634,2.531-2.533,2.531h-26.709
	C439.313,484.451,438.68,483.818,438.68,481.919"/>
<path d="M486.275,484.451h-7.596c-1.898,0-2.532-0.635-2.532-2.531v-83.552c0-1.9,0.634-2.531,2.532-2.531h7.596
	c1.898,0,2.531,0.631,2.531,2.531v83.552C488.807,483.816,488.174,484.451,486.275,484.451"/>
<path d="M526.146,395.836h32.915c1.898,0,2.533,0.633,2.533,2.531v6.837c0,1.898-0.635,2.53-2.533,2.53h-7.596
	c-2.531,0-2.531,0-2.531,2.532v71.653c0,1.896-0.633,2.531-2.531,2.531h-7.596c-1.898,0-2.532-0.635-2.532-2.531v-71.653
	c0-2.532,0-2.532-2.405-2.532h-7.724c-1.898,0-2.532-0.632-2.532-2.53v-6.837C523.614,396.469,524.248,395.836,526.146,395.836"/>
<path d="M715.387,395.836h32.917c1.897,0,2.528,0.633,2.528,2.531v6.837c0,1.898-0.631,2.53-2.528,2.53h-7.6
	c-2.53,0-2.53,0-2.53,2.532v71.653c0,1.896-0.633,2.531-2.53,2.531h-7.596c-1.898,0-2.532-0.635-2.532-2.531v-71.653
	c0-2.532,0-2.532-2.405-2.532h-7.724c-1.897,0-2.53-0.632-2.53-2.53v-6.837C712.856,396.469,713.489,395.836,715.387,395.836"/>
<path fill="#BE1622" stroke="#BE1622" stroke-width="2.4095" stroke-linecap="round" stroke-linejoin="round" stroke-miterlimit="10" d="
	M614.425,336.205c0,0-11.804-9.511-17.131-12.367c-0.225-0.12-0.468-0.224-0.719-0.32c-0.001,0-0.002-0.001-0.003-0.001l3.963-4.531
	l0.683-4.116c0,0-1.252,0.572-3.534,1.03c-2.287,0.456-4.111,0-4.111,0l-2.815,6.933c-0.001,0-0.002,0-0.004,0
	c-0.705,0.028-1.418,0.082-2.131,0.155c-0.017,0.001-0.032,0.003-0.049,0.005c-3.597,0.372-7.11,1.222-8.836,1.681
	c-0.012,0.003-0.021,0.006-0.034,0.009c-0.333,0.089-0.599,0.163-0.779,0.214c-0.01,0.003-0.015,0.005-0.022,0.007
	c-0.08,0.022-0.142,0.041-0.186,0.054c-0.011,0.003-0.014,0.004-0.021,0.006c-0.037,0.011-0.062,0.02-0.062,0.02l-18.073,13.892
	c0,0,3.803,4.188,7.229,3.615c3.43-0.572,4.764-0.379,16.371-1.139c11.612-0.766,10.082-8.758,10.082-8.758l4.766,10.849
	l-7.807,8.755c-7.805,8.758-15.319,20.544-15.319,20.544l19.125,22.4h18.083l18.27-24.721L614.425,336.205z"/>
<path fill="#BE1622" d="M608.118,391.783c0.208,0.64,0.297,1.006,0.414,1.483c0.106,0.451,0.201,0.895,0.28,1.341
	c0.162,0.889,0.281,1.774,0.353,2.675c0.149,1.795,0.119,3.627-0.137,5.479c-0.48,3.687-2.078,7.505-4.704,10.392
	c-0.646,0.72-1.342,1.386-2.071,1.99c-0.782,0.644-1.345,1.021-2.146,1.567c-1.448,0.961-3.037,1.818-4.75,2.479
	c-3.419,1.362-7.352,1.674-10.816,1.074c-3.491-0.573-6.58-1.819-9.431-3.213c-2.852-1.408-5.488-3.005-8.049-4.658
	c-5.106-3.315-9.911-6.859-14.711-10.384c-2.301-1.688-4.68-3.139-7.201-4.271c-2.511-1.123-5.147-1.905-7.768-2.078
	c-2.611-0.179-5.19,0.308-7.327,1.607c-2.147,1.282-3.803,3.383-4.864,5.846c-1.064,2.47-1.589,5.251-1.74,8.078l-0.045,1.062
	c-0.005,0.327,0.007,0.62,0.036,0.949c0.059,0.642,0.175,1.288,0.348,1.925c0.343,1.276,0.896,2.515,1.609,3.666
	c1.43,2.311,3.492,4.267,5.821,5.867c2.337,1.6,4.942,2.861,7.646,3.893c0.634,0.238,0.954,0.945,0.716,1.578
	c-0.233,0.623-0.929,0.941-1.553,0.727c-2.872-1.004-5.688-2.266-8.304-3.953c-2.604-1.686-5.021-3.824-6.803-6.527
	c-0.887-1.347-1.605-2.829-2.076-4.409c-0.237-0.791-0.411-1.605-0.51-2.441c-0.048-0.407-0.078-0.858-0.083-1.271l-0.006-1.166
	c0.025-3.101,0.44-6.279,1.585-9.333c1.137-3.032,3.146-5.961,6.038-7.884c2.868-1.948,6.38-2.74,9.683-2.662
	c3.326,0.064,6.51,0.876,9.472,2.033c2.961,1.159,5.748,2.708,8.323,4.401c4.998,3.188,9.99,6.377,15.05,9.208
	c2.529,1.408,5.079,2.722,7.634,3.777c2.548,1.052,5.116,1.841,7.521,2.062c2.413,0.226,4.593-0.128,6.647-1.102
	c1.029-0.484,2.034-1.106,3.012-1.856c0.409-0.314,1.038-0.825,1.384-1.15c0.395-0.366,0.752-0.751,1.072-1.155
	c1.283-1.611,1.992-3.549,2.175-5.756c0.091-1.099,0.048-2.254-0.112-3.411c-0.078-0.58-0.19-1.159-0.325-1.726
	c-0.066-0.281-0.142-0.563-0.222-0.83c-0.071-0.242-0.188-0.588-0.221-0.65c-1.249-2.396-0.321-5.351,2.073-6.601
	c2.396-1.251,5.352-0.323,6.602,2.074c0.122,0.23,0.224,0.469,0.302,0.709L608.118,391.783z"/>
<path d="M494.503,395.836h39.429c1.896,0,2.531,0.633,2.531,2.531v6.837c0,1.898-0.635,2.53-2.531,2.53H519.82
	c-2.532,0-2.532,0-2.532,2.532v71.653c0,1.896-0.634,2.531-2.531,2.531h-7.597c-1.897,0-2.531-0.635-2.531-2.531v-71.653
	c0-2.532,0-2.532-2.406-2.532h-7.722c-1.897,0-2.531-0.632-2.531-2.53v-6.837C491.97,396.469,492.604,395.836,494.503,395.836"/>
<path d="M509.192,501.953h9.82c0.567,0,0.755,0.188,0.755,0.754v2.041c0,0.564-0.188,0.756-0.755,0.756h-2.267
	c-0.755,0-0.755,0-0.755,0.754v21.381c0,0.564-0.188,0.754-0.755,0.754h-2.265c-0.568,0-0.757-0.188-0.757-0.754v-21.381
	c0-0.754,0-0.754-0.718-0.754h-2.304c-0.568,0-0.755-0.191-0.755-0.756v-2.041C508.437,502.14,508.624,501.953,509.192,501.953"/>
<path d="M541.865,505.275c-0.757,0-0.757,0-0.757,0.756v7.215c0,0.756,0,0.756,0.757,0.756h1.134c1.172,0,1.889-0.756,1.889-2.682
	v-3.326c0-1.963-0.717-2.719-1.889-2.719H541.865L541.865,505.275z M548.665,508.978v1.207c0,3.439-0.981,5.176-2.304,6.158
	l2.267,11.258c0.15,0.604-0.151,0.791-0.453,0.791h-2.381c-0.489,0-0.718,0-0.83-0.562l-1.928-10.162
	c-0.077-0.342-0.303-0.342-0.453-0.342h-0.718c-0.757,0-0.757,0-0.757,0.756v9.557c0,0.566-0.188,0.756-0.753,0.756h-2.269
	c-0.564,0-0.755-0.188-0.755-0.756v-24.93c0-0.566,0.189-0.758,0.755-0.758h4.911C546.135,501.951,548.665,503.763,548.665,508.978"
	/>
<path d="M571.404,520.726c-0.112,0.754-0.112,0.754,0.643,0.754h2.113c0.757,0,0.757,0,0.644-0.754l-1.549-9.182
	c-0.036-0.188-0.265-0.188-0.303,0L571.404,520.726z M576.805,528.392c-0.489,0-0.717,0-0.831-0.562l-0.339-2.043
	c-0.152-0.754-0.152-0.754-0.832-0.754h-3.36c-0.719,0-0.719,0-0.868,0.754l-0.342,2.043c-0.113,0.562-0.339,0.562-0.83,0.562
	h-2.268c-0.377,0-0.754,0-0.644-0.641l4.762-25.121c0.112-0.564,0.228-0.678,0.831-0.678h2.037c0.606,0,0.72,0.113,0.832,0.678
	l4.762,25.121c0.112,0.641-0.267,0.641-0.645,0.641H576.805z"/>
<path d="M603.55,525.068c1.17,0,2.266-0.754,2.266-2.719v-0.266c0-0.566,0.19-0.756,0.756-0.756h2.229
	c0.565,0,0.794,0.453,0.757,0.98c-0.341,4.496-3.062,6.234-6.007,6.234c-3.136,0-6.042-1.967-6.042-7.176v-12.393
	c0-5.215,2.906-7.176,6.042-7.176c2.945,0,5.666,1.738,6.007,6.232c0.037,0.527-0.19,0.98-0.757,0.98h-2.229
	c-0.564,0-0.756-0.188-0.756-0.754v-0.268c0-1.963-1.096-2.719-2.266-2.719c-1.173,0-2.267,0.756-2.267,2.719v14.355
	C601.283,524.314,602.376,525.068,603.55,525.068"/>
<path d="M630.934,528.392h-2.266c-0.569,0-0.757-0.188-0.757-0.754v-24.932c0-0.566,0.188-0.754,0.757-0.754h2.266
	c0.566,0,0.755,0.188,0.755,0.754v9.178c0,0.191,0.188,0.268,0.303,0.039l3.968-9.217c0.302-0.68,0.528-0.754,1.097-0.754h2.227
	c0.568,0,0.644,0.338,0.455,0.754l-4.081,9.406c-0.074,0.189-0.11,0.266,0,0.68l4.081,14.846c0.113,0.416,0,0.754-0.568,0.754
	h-2.229c-0.564,0-0.828-0.188-0.979-0.754l-2.908-10.539c-0.039-0.15-0.229-0.188-0.302,0l-0.908,2.115
	c-0.112,0.262-0.151,0.527-0.151,0.906v7.518C631.688,528.205,631.501,528.392,630.934,528.392"/>
<path d="M656.317,522.349c0-0.643,0.152-0.832,0.794-0.832h2.191c0.489,0,0.755,0.189,0.755,0.871c0,1.473,0.756,2.68,2.306,2.68
	c1.509,0,2.189-1.168,2.34-2.229c0.718-4.492-7.592-8.838-7.971-15.07c-0.188-3.248,2.154-5.969,5.553-5.969
	c2.608,0,5.102,2.004,5.402,5.025c0.074,1.02,0,1.205-0.757,1.205h-2.076c-0.568,0-0.755-0.188-0.755-0.752
	c0-1.359-0.793-2.004-1.814-2.004c-1.737,0-1.925,1.699-1.851,2.457c0.414,4.229,7.216,8.045,7.932,13.975
	c0.416,3.398-2.113,6.838-6.003,6.838C658.887,528.544,656.242,525.673,656.317,522.349"/>
<rect x="687.432" y="512.548" width="50.771" height="5.641"/>
<rect x="439.124" y="512.548" width="50.771" height="5.641"/>
<path d="M721.594,482.298l-15.952-84.183c-0.38-1.9-0.757-2.278-2.783-2.278h-6.838c-2.024,0-2.403,0.378-2.783,2.278
	l-15.468,81.648l-7.189-35.693c4.432-3.293,7.723-9.117,7.723-20.637v-4.05c0-17.47-8.482-23.548-18.987-23.548h-16.46
	c-1.898,0-2.529,0.635-2.529,2.534v83.55c0,1.898,0.631,2.531,2.529,2.531h7.599c1.898,0,2.531-0.633,2.531-2.531V449.89
	c0-2.529,0-2.529,2.53-2.529h2.403c0.508,0,1.269,0,1.523,1.139l6.455,34.053c0.38,1.898,1.137,1.898,2.784,1.898h0.642v0.002
	h18.154v-0.004c1.338-0.018,1.996-0.182,2.34-1.896l1.145-6.836c0.503-2.531,0.503-2.531,2.908-2.531h11.269
	c2.277,0,2.277,0,2.782,2.531l1.142,6.836c0.38,1.898,1.137,1.898,2.784,1.898h7.598
	C720.706,484.451,721.974,484.451,721.594,482.298z M665.642,427.228c0,6.461-2.404,8.99-6.328,8.99h-3.8c-2.53,0-2.53,0-2.53-2.531
	v-24.178c0-2.534,0-2.534,2.53-2.534h3.8c3.924,0,6.328,2.534,6.328,9.117V427.228z M702.982,461.283h-7.088
	c-2.53,0-2.53,0-2.153-2.533l5.19-30.758c0.127-0.635,0.888-0.635,1.016,0l5.189,30.758
	C705.517,461.283,705.517,461.283,702.982,461.283z"/>
</svg>
