<?xml version="1.0" encoding="utf-8"?>
<!-- Generator: Adobe Illustrator 15.0.0, SVG Export Plug-In . SVG Version: 6.00 Build 0)  -->
<!DOCTYPE svg PUBLIC "-//W3C//DTD SVG 1.1//EN" "http://www.w3.org/Graphics/SVG/1.1/DTD/svg11.dtd">
<svg version="1.1" id="Layer_1" xmlns="http://www.w3.org/2000/svg" xmlns:xlink="http://www.w3.org/1999/xlink" x="0px" y="0px"
	 width="1190.551px" height="841.89px" viewBox="0 0 1190.551 841.89" enable-background="new 0 0 1190.551 841.89"
	 xml:space="preserve">
<path fill="#FFFFFF" d="M536.113,505.556V411.19c0-2.146,0.714-2.86,2.86-2.86h8.579c2.146,0,2.858,0.716,2.858,2.86v80.784
	c0,3.004,0,3.004,3.003,3.004h15.728c2.146,0,2.861,0.715,2.861,2.857v7.721c0,2.146-0.717,2.861-2.861,2.861h-30.167
	C536.828,508.417,536.113,507.701,536.113,505.556"/>
<path fill="#FFFFFF" d="M622.338,408.329h37.177c2.145,0,2.859,0.714,2.859,2.86v7.722c0,2.143-0.716,2.858-2.859,2.858h-8.579
	c-2.86,0-2.86,0-2.86,2.859v80.928c0,2.145-0.716,2.859-2.859,2.859h-8.579c-2.146,0-2.86-0.715-2.86-2.859v-80.928
	c0-2.859,0-2.859-2.716-2.859h-8.722c-2.145,0-2.859-0.716-2.859-2.858v-7.722C619.478,409.043,620.193,408.329,622.338,408.329"/>
<path fill="#FFFFFF" d="M600.294,408.515c-1.066-0.125-2.159-0.186-3.271-0.186h-3.214h-15.375c-2.144,0-2.858,0.716-2.858,2.86
	v94.367c0,2.145,0.716,2.859,2.858,2.859h8.58c2.144,0,2.858-0.715,2.858-2.859V469.38c0-2.857,0-2.857,2.859-2.857h1.076h1.641
	c0.571,0,1.432,0,1.717,1.285l7.29,38.465c0.431,2.145,1.289,2.145,3.146,2.145h9.009c1.143,0,2.286-0.717,1.715-3.002
	l-8.577-42.609c2.503-1.857,4.683-4.434,6.236-8.168s2.484-8.633,2.484-15.139v-0.002v-4.574
	C618.469,417.042,610.6,409.729,600.294,408.515z M604.173,443.787c0,2.553-0.341,4.553-0.963,6.086
	c-1.156,2.848-3.308,4.066-6.188,4.066h-3.214v0.002h-1.076c-2.859,0-2.859,0-2.859-2.859v-27.311c0-2.859,0-2.859,2.859-2.859h4.29
	c4.433,0,7.15,2.859,7.15,10.294L604.173,443.787L604.173,443.787z"/>
<path fill="#BE1622" d="M598.551,406.718c0.262,3.168-0.134,6.707-1.304,9.847c-1.155,3.173-3.026,6.003-5.26,8.294
	c-4.497,4.604-10.011,7.369-15.513,9.232c-5.515,1.865-11.218,2.854-16.733,3.49c-5.236,0.762-10.44,1.965-15.228,3.99
	c-4.732,2.01-9.244,4.928-11.681,9.053c-1.201,2.039-1.786,4.357-1.54,6.699c0.222,2.344,1.222,4.67,2.669,6.752
	c1.45,2.115,3.267,3.752,5.51,4.582c2.214,0.834,4.751,0.746,7.124-0.049c2.376-0.789,4.6-2.213,6.428-4.006
	c1.806-1.787,3.33-4.027,3.72-6.377l0.008-0.041c0.099-0.594,0.664-0.996,1.258-0.896c0.586,0.096,0.983,0.645,0.903,1.229
	c-0.437,3.133-2.146,5.686-4.122,7.814c-2.02,2.117-4.474,3.832-7.281,4.877c-2.783,1.047-6.041,1.328-9.033,0.322
	c-2.997-0.953-5.471-3.158-7.203-5.486c-1.799-2.322-3.245-5.117-3.718-8.242c-0.508-3.117,0.138-6.434,1.587-9.191
	c1.448-2.783,3.57-5.053,5.877-6.916c2.322-1.865,4.857-3.363,7.474-4.604c5.249-2.471,10.781-4.018,16.376-5.006
	c5.345-0.963,10.438-2.322,15.214-4.33c4.721-2.016,9.133-4.664,12.104-8.19c1.479-1.752,2.587-3.67,3.222-5.699
	c0.626-2.059,0.788-4.106,0.493-6.401c-0.305-2.38,1.372-4.554,3.751-4.859c2.378-0.307,4.553,1.374,4.86,3.752
	c0.007,0.06,0.014,0.119,0.019,0.178L598.551,406.718z"/>
<path fill="#FFFFFF" d="M550.412,411.189c0-2.146-0.716-2.86-2.858-2.86h-8.581c-2.145,0-2.858,0.714-2.858,2.86v49.386h14.297
	L550.412,411.189L550.412,411.189z"/>
<path fill="#BE1622" stroke="#BE1622" stroke-width="2.156" stroke-linecap="round" stroke-linejoin="round" stroke-miterlimit="10" d="
	M603.521,354.52c0,0-10.56-8.509-15.327-11.064c-0.201-0.106-0.418-0.2-0.643-0.287l3.547-4.055l0.606-3.681
	c0,0-1.118,0.513-3.158,0.924c-2.05,0.406-3.68,0-3.68,0l-2.52,6.2c-5.107,0.201-10.848,1.922-10.848,1.922l-16.168,12.428
	c0,0,3.402,3.749,6.467,3.234c3.066-0.51,4.261-0.339,14.646-1.017c10.388-0.687,9.02-7.835,9.02-7.835l4.264,9.704l-6.982,7.83
	c-6.982,7.835-13.706,18.38-13.706,18.38l17.108,20.04h16.179l16.345-22.114L603.521,354.52z"/>
</svg>
