<?xml version="1.0" encoding="UTF-8" standalone="no"?>
<!-- Generator: Adobe Illustrator 19.1.0, SVG Export Plug-In . SVG Version: 6.00 Build 0)  -->

<svg
   xmlns:dc="http://purl.org/dc/elements/1.1/"
   xmlns:cc="http://creativecommons.org/ns#"
   xmlns:rdf="http://www.w3.org/1999/02/22-rdf-syntax-ns#"
   xmlns:svg="http://www.w3.org/2000/svg"
   xmlns="http://www.w3.org/2000/svg"
   xmlns:sodipodi="http://sodipodi.sourceforge.net/DTD/sodipodi-0.dtd"
   xmlns:inkscape="http://www.inkscape.org/namespaces/inkscape"
   version="1.1"
   id="Layer_1"
   x="0px"
   y="0px"
   viewBox="0 0 139.89999 139.89999"
   xml:space="preserve"
   inkscape:version="0.91 r13725"
   sodipodi:docname="logo-two-black.svg"
   width="139.89999"
   height="139.89999"><metadata
     id="metadata53"><rdf:RDF><cc:Work
         rdf:about=""><dc:format>image/svg+xml</dc:format><dc:type
           rdf:resource="http://purl.org/dc/dcmitype/StillImage" /><dc:title></dc:title></cc:Work></rdf:RDF></metadata><defs
     id="defs51" /><sodipodi:namedview
     pagecolor="#ffffff"
     bordercolor="#666666"
     borderopacity="1"
     objecttolerance="10"
     gridtolerance="10"
     guidetolerance="10"
     inkscape:pageopacity="0"
     inkscape:pageshadow="2"
     inkscape:window-width="1920"
     inkscape:window-height="1017"
     id="namedview49"
     showgrid="false"
     inkscape:zoom="0.96757939"
     inkscape:cx="143.33319"
     inkscape:cy="73.88029"
     inkscape:window-x="-8"
     inkscape:window-y="-8"
     inkscape:window-maximized="1"
     inkscape:current-layer="Layer_1"
     inkscape:snap-page="false"
     inkscape:snap-text-baseline="false"
     inkscape:snap-object-midpoints="false"
     fit-margin-top="0"
     fit-margin-left="0"
     fit-margin-right="0"
     fit-margin-bottom="0"><sodipodi:guide
       position="-504.09998,-364.9"
       orientation="0,1190.6"
       id="guide4140" /><sodipodi:guide
       position="686.49997,-364.9"
       orientation="-841.90002,0"
       id="guide4142" /><sodipodi:guide
       position="686.49997,476.99999"
       orientation="0,-1190.6"
       id="guide4144" /><sodipodi:guide
       position="-504.09998,476.99999"
       orientation="841.90002,0"
       id="guide4146" /></sodipodi:namedview><style
     type="text/css"
     id="style3">
	.st0{fill:#BE1E2D;}
</style><g
     id="g5"
     style="fill:#000000;stroke:#000000;stroke-opacity:1"
     transform="matrix(0.78595506,0,0,0.78595506,-396.19995,-235.00057)"><g
       id="g7"
       style="fill:#000000;stroke:#000000;stroke-opacity:1"><g
         id="g9"
         style="fill:#000000;stroke:#000000;stroke-opacity:1"><path
           class="st0"
           d="m 560.8,349.4 19.2,0 0,25.4 -4.1,0 0,-21.4 -11.1,0 0,68.9 11.1,0 0,-21.2 4.1,0 0,25.3 -19.2,0 0,-77 z m 45.1,48.2 -33.6,0 0,22.1 -4.1,0 0,-26.2 41.5,0 0,28.8 4.1,0 0,-32.5 -45.6,0 0,-3.9 49.5,0 0,40.4 -11.9,0 0,-28.7 z m -37.5,-40.9 4,0 0,21.6 33.6,0 0,-28.8 3.9,0 0,32.7 -41.4,0 0,-25.5 z m 53.1,-3.2 -3.7,0 0,29 -4,0 0,-33 11.6,0 0,77.1 -3.9,0 0,-73.1 z"
           id="path11"
           style="fill:#000000;stroke:#000000;stroke-opacity:1"
           inkscape:connector-curvature="0" /><path
           class="st0"
           d="m 625.7,426.9 -4.6,0 0,-73 -3,0 0,29 -4.7,0 0,-33.7 12.3,0 0,77.7 z m -3.8,-0.8 3.1,0 0,-76.4 -10.8,0 0,32.3 3.2,0 0,-29 4.5,0 0,73.1 z m -3.8,0.8 -12.6,0 0,-28.9 -32.9,0 0,22.1 -4.8,0 0,-26.9 42.2,0 0,28.8 3.4,0 0,-31.8 -45.6,0 0,-4.6 50.3,0 0,41.3 z m -11.8,-0.8 11.2,0 0,-39.7 -48.8,0 0,3.1 45.6,0 0,33.2 -4.8,0 0,-28.8 -40.8,0 0,25.5 3.4,0 0,-22.1 34.3,0 0,28.8 z m -26,0.8 -19.9,0 0,-77.8 19.9,0 0,26.1 -4.8,0 0,-21.4 -10.4,0 0,68.2 10.4,0 0,-21.2 4.8,0 0,26.1 z m -19.2,-0.8 18.4,0 0,-24.6 -3.4,0 0,21.2 -11.8,0 0,-69.6 11.8,0 0,21.4 3.4,0 0,-24.7 -18.4,0 0,76.3 z m 49,-43.6 -42.1,0 0,-26.1 4.7,0 0,21.6 32.9,0 0,-28.8 4.6,0 0,33.3 z m -41.4,-0.7 40.7,0 0,-32 -3.1,0 0,28.8 -34.3,0 0,-21.6 -3.2,0 0,24.8 z"
           id="path13"
           style="fill:#000000;stroke:#000000;stroke-opacity:1"
           inkscape:connector-curvature="0" /></g></g><g
       id="g15"
       style="fill:#000000;stroke:#000000;stroke-opacity:1"><path
         class="st0"
         d="m 681.6,476.5 -177,0 0,-177 177,0 0,177 z m -170.3,-6.7 163.6,0 0,-163.6 -163.6,0 0,163.6 z"
         id="path17"
         style="fill:#000000;stroke:#000000;stroke-opacity:1"
         inkscape:connector-curvature="0" /></g></g></svg>